<svg id="a1cdffce-4d00-489c-9da2-814f387e9e17" data-name="Livello 1" xmlns="http://www.w3.org/2000/svg" viewBox="0 0 320.03 177.23"><defs><style>.ba861cb6-2532-4905-be25-4e6dc94e0862,.e26744bc-cecc-4c51-ac3f-bd44a48cd50b{fill:#3f51b5;}.a74ac5b8-1f70-4ebf-9432-f9bedd35f69c{fill:#ff4081;}.ae449852-7382-4a98-868f-0355361b53db{fill:#fff;}.e26744bc-cecc-4c51-ac3f-bd44a48cd50b{font-size:24.48px;font-family:SignPainter-HouseScript, SignPainter;}</style></defs><ellipse class="ba861cb6-2532-4905-be25-4e6dc94e0862" cx="155.67" cy="99.54" rx="144.44" ry="65.15"/><path class="a74ac5b8-1f70-4ebf-9432-f9bedd35f69c" d="M155.67,166.84c-38.88,0-75.47-6.84-103-19.27-28.1-12.67-43.58-29.73-43.58-48s15.48-35.35,43.58-48c27.55-12.43,64.14-19.28,103-19.28s75.46,6.85,103,19.28c28.09,12.67,43.57,29.73,43.57,48s-15.48,35.36-43.57,48C231.13,160,194.55,166.84,155.67,166.84Zm0-130.3c-38.29,0-74.25,6.71-101.26,18.89C28,67.37,13.37,83,13.37,99.54s14.58,32.18,41,44.11c27,12.19,63,18.9,101.26,18.9s74.24-6.71,101.25-18.9c26.47-11.93,41-27.6,41-44.11s-14.57-32.17-41-44.11C229.91,43.25,194,36.54,155.67,36.54Z"/><path class="ae449852-7382-4a98-868f-0355361b53db" d="M89,92.32c3.62-4.2,4-8,.91-10.2-4.61-3.29-15.13-7.64-14.88-13,.41-10.27,20.63-22.85,23.43-20,2,2.05-4.19,8.87-5.92,12.82s-.74,6.41.82,8c.91.9,1.4.49,1.81-.25a95.66,95.66,0,0,1,5.67-9.13c1.24-1.72,3.21-4.93,2.39-8.22a14.86,14.86,0,0,0-4.11-6.9c-2.72-2.47-6.66-1.81-10.61-.17C81.17,48.42,68.43,58,68.43,69.3c0,8.47,13,13.56,17.35,17.26a2.85,2.85,0,0,1,.16,4.28,7.86,7.86,0,0,1-5.09,1.48c-5.35,0-10.94-4.28-14.23-6.91a9.46,9.46,0,0,0-8.3-1.73c-.74.25-1.07.83-.17,1.9C69.75,99.55,84.05,98,89,92.32Z"/><path class="ae449852-7382-4a98-868f-0355361b53db" d="M133.71,62.47a5,5,0,0,0,.57-5.5c-1.07-2.22-3.45-3.21-4.77-1.81a5.11,5.11,0,0,0-.41,6.08C130.34,63.38,132.64,63.63,133.71,62.47Z"/><path class="ae449852-7382-4a98-868f-0355361b53db" d="M109.61,105.6a14.69,14.69,0,0,0-4.11-6.9c-2.71-2.47-6.66-1.81-10.61-.17-7.31,3.13-20,12.75-20,24,0,8.47,13,13.56,17.34,17.26a2.86,2.86,0,0,1,.17,4.28,7.89,7.89,0,0,1-5.1,1.48c-5.34,0-10.93-4.28-14.22-6.91a9.44,9.44,0,0,0-8.31-1.72c-.74.24-1.07.82-.16,1.89,11.59,14,25.9,12.41,30.83,6.74,3.62-4.19,4-8,.9-10.2-4.6-3.28-15.12-7.64-14.88-13,.41-10.28,20.64-22.86,23.43-20,2,2-4.19,8.88-5.92,12.82s-.74,6.42.83,8c.9.9,1.39.49,1.8-.25a96,96,0,0,1,5.68-9.12C108.46,112.1,110.43,108.89,109.61,105.6Z"/><path class="ae449852-7382-4a98-868f-0355361b53db" d="M260.22,135.28c-.41-.57-1.07-.57-1.48.17-3.2,5.75-6.9,11.18-10.27,11.26-3,.08-4.11-3.7-1.81-8.39,2.05-4.11,6.08-9.53,7.56-13.23,1.64-4.11,1-9-2-9-2.72-.08-8.22,3.79-12.17,7.65,1.07-3.62-.41-8-3.21-8.06-3-.08-9.12,4.77-12.74,9,1.23-3.29,1.48-6.5.08-8.8-.49-.82-1.15-.91-1.72,0-5.18,7.73-11.18,19.32-12.91,24.5-.09.28-.16.53-.24.8-2.43,3.33-5.17,5.83-7.41,5.94-2.79.16-2.71-3.37-.65-8,2-4.35,6.08-10.52,7.89-14.22,2-4.11,1.31-7.64.08-9.12-.58-.74-1.23-.58-2,.49a56.65,56.65,0,0,0-3,5c.16-3.2-1.48-5.92-5-5.92-4.11,0-10.6,3.7-17.26,13.41a26.11,26.11,0,0,0-3.53,7.22c-3.59,5.27-9.35,11.26-15.87,10.94-4.36-.24-6.33-5.42-3.7-13,5.75,4.69,11.26,2.55,15.29-2.38,3.45-4.19,4.11-9.21,2.63-11.18A15.48,15.48,0,0,0,172,116c-4.11-2.38-12.5,1.9-17.84,12.5a22,22,0,0,0-2.41,8.37c-2.71,5.59-6.55,10.2-9.68,10.05-2.46-.09-3.53-3.37-2.05-7.9,1.4-4.35,5.51-9.86,9.45-14.3,2.47-2.8.33-6.5-1.23-8.3-.74-.83-1.32-.58-2.39.16a18.9,18.9,0,0,1-9,3.78c2.22-5.34,3-10.44.33-10.27-3.37.16-11.42,11.26-5.26,13.73-5.1,12.74-13.73,22.85-18.66,23-3.37.09-4.52-4.93-1.73-11.09,3.13-6.91,7.89-14.8,11.1-20.39a48.23,48.23,0,0,1,5.92-.09c1.23.09,1.64-.32,1.15-1.23a5.88,5.88,0,0,0-4.93-2.88,17.11,17.11,0,0,0,1.67-5.92c2.93-6.29,5.9-12.11,8.7-17.23A8.51,8.51,0,0,0,138,93.55c2.88,2.63,6.33,3.37,11.59,3a17.85,17.85,0,0,0,13.3-6.73c.94,3.76,3.78,6,7,6.07,6.58.25,12-7,13.07-9.37.82-1.89,1.24-3.37.82-4.68-.32-1.15-1.23-1-1.72,0-3,6.16-7.73,12-11.43,11.83-3.45-.16-4.36-5.26-1.64-11.26,3.12-6.9,7.81-14.88,11-20.39a24.84,24.84,0,0,1,6.42-.33c1.23,0,1.56-.57,1-1.56s-1.89-2.55-5.1-2.46c2-4.28,2-7,1.07-9.29-.41-1-1.23-1.07-2,0a104.28,104.28,0,0,0-6.25,10.19,46.66,46.66,0,0,1-6.82.33c-1.23-.08-1.73.49-.91,1.64a6.77,6.77,0,0,0,5.35,2.14c-3.54,6.5-7,13.4-8.72,17.51A21.72,21.72,0,0,0,162.86,84c-2.78,5-7.5,9.91-14.77,10.35,3.13-1.89,6.17-5.83,8.64-11.26,3-6.74,4.85-14.06.9-18.25-3.53-3.7-8.38-1.4-12,1.72a8.64,8.64,0,0,0-.5-3.69c-.41-1-1.15-1.16-2-.09-3.25,4.34-9.91,16.24-15,26.47-2.07,2.47-4.37,4.19-6.43,4.28-2.63.16-2.79-3-.82-7.81,1.73-4.11,5.18-9.7,6.91-13.32,2-4.11,1.31-7.64.08-9-.66-.74-1.23-.49-2,.49-3,4.28-8.47,14-10.53,20,0,.06,0,.12-.05.18-3.3,5.27-8,9.64-11.46,9.36-3.7-.33-2.79-7.15.5-15.21,7.31-4.77,16.52-14.63,19.07-24.75,1-3.86.49-6.9-1.89-9-1.15-1.07-2.3-.9-3.54.41-8.38,8.72-17.75,23.6-20.79,37.9-1.9,8.88,1.15,12.83,6.82,13,4,.1,7.84-2.42,10.45-5,.48,3.12,2.55,5.12,6.4,5.12a11.29,11.29,0,0,0,4.5-1,80.38,80.38,0,0,0-3.68,8.82c-.28.91-.49,1.72-.65,2.46-1,1.68-2.12,3.63-3.3,5.73a41.48,41.48,0,0,1-6.74.25c-1.24-.08-1.65.58-.91,1.65a6.66,6.66,0,0,0,5.26,2.3,190.18,190.18,0,0,0-8.71,17.34c-4,9.46.49,15.71,6,15.71,8.63,0,17.18-12.42,22.61-24.83a19.37,19.37,0,0,0,10-3.13c-3.54,4-8.55,10.12-10.28,15.62-2,6.58.41,12.25,6.66,12.5,4.05.15,8.42-2.74,10.77-6.88,1.43,4.14,5,6.88,10.44,6.8A20.72,20.72,0,0,0,177.74,142c.32,4.2,2.65,7.1,6.68,7.1s7.65-3,10.28-6.41c0,3.87,2.3,6.5,6.74,6.74,2.51.14,5.21-1.19,7.49-3.17a4.66,4.66,0,0,0,1.47,2.52c.74.65,1.23.32,1.56-.42,3.29-7.72,7.24-15.37,12.09-20.63,5.26-5.76,9.29-8,10.28-7.56,1.64.57-7.24,11.92-10,18.74-2.39,5.92-1.24,9.13.16,10.36.74.82,1.4.57,1.89-.41,3.46-7.73,7.48-15.62,14.31-22.45,5.34-5.34,8.14-6.24,8.79-6,1.24.41-6.08,9.62-9.12,16.44s-.41,12.42,6.74,12.42c4.77,0,10-4.11,12.33-8.8C260.39,138.57,260.63,135.86,260.22,135.28Zm-99.89-4.6c3.87-7.81,10.69-12.74,12.42-11.35,1.15.91-.66,5.18-3.29,8.64-2.38,3.12-5.76,6.65-9.78,4.11C159.84,131.67,160.09,131.17,160.33,130.68ZM139.79,79.82c1-1.73,1.89-3.21,2.8-4.69,3.86-6.33,9-10.44,10.93-9.45s1.15,7.81-2.06,14.39C147.6,88,142.26,94,139.63,91.82,137.32,89.93,137.74,85,139.79,79.82Zm-32-9c5.67-10.53,11.76-19.65,12.83-19s-3.54,13.81-14.8,22.93A42.56,42.56,0,0,1,107.81,70.78Zm77.52,75.6c-3.21-.08-2.14-7.32,2.22-14.39,4.52-7.31,10.52-12.66,13.15-12.41,2.38.25,1.64,5.34-3.53,14.39C193,141.2,188.7,146.46,185.33,146.38Z"/><path class="a74ac5b8-1f70-4ebf-9432-f9bedd35f69c" d="M46.56,141.39c-.38-.31-.73-.66-1.13-.94A12.69,12.69,0,0,0,44,139.7a14.09,14.09,0,0,1-2.24-1.86c-1.59-1.35-3.34-2.53-4.84-4s-3.09-2.57-4.47-4.06c-.68-.73-1.27-1.53-1.92-2.29s-1.37-1.5-2-2.26a40,40,0,0,1-3.29-4.67A22.5,22.5,0,0,1,22.86,115a23.08,23.08,0,0,1-.77-3,10.23,10.23,0,0,1,.14-3.17c.16-1,.24-2.09.4-3.12a3.84,3.84,0,0,1,1.15-2.36c.62-.58,1.23-1.18,1.86-1.76a4.35,4.35,0,0,1,2.75-.93c1-.11,1.89-.41,2.88-.43a11.3,11.3,0,0,1,2.85.16,16.21,16.21,0,0,1,5.38,1.89c1.8,1.17,3.49,2.48,5.28,3.67a27,27,0,0,1,4.4,3.67,19,19,0,0,1,1.74,2.35c.6.84,1.34,1.56,1.94,2.4,2.45,3.36,3.44,7.35,5,11.15a15.1,15.1,0,0,0,1.48,2.7,27.71,27.71,0,0,1,1.45,2.48,24.36,24.36,0,0,0,3.64,4.69c2.51,2.77,4.84,5.73,7.85,8a18.94,18.94,0,0,0,2.41,1.54c.32.18,1.06.38,1.17-.14s-.67-1.05-1-1.25c-3.23-1.78-5.58-4.76-8-7.48a30.2,30.2,0,0,1-3.8-4.58c-.51-.89-.94-1.81-1.51-2.66a16.51,16.51,0,0,1-1.52-2.6c-.84-2-1.49-4-2.24-6a24.87,24.87,0,0,0-3-5.69c-.62-.89-1.38-1.65-2-2.51a28.74,28.74,0,0,0-1.78-2.44,26.86,26.86,0,0,0-2.27-2.13,22.92,22.92,0,0,0-2.53-2.08c-1.8-1.21-3.52-2.55-5.35-3.71A19.9,19.9,0,0,0,38,99.88,18.28,18.28,0,0,0,34.82,99a15.36,15.36,0,0,0-2.92-.56,18,18,0,0,0-3.11,0c-.47.07-.91.23-1.38.3s-1.13.1-1.69.2a4.25,4.25,0,0,0-2.36,1.31c-.64.64-1.39,1.21-2,1.89a4.85,4.85,0,0,0-1,2.57c-.13,1-.26,2.09-.41,3.15a10.79,10.79,0,0,0-.09,3.21,33.17,33.17,0,0,0,1.89,6.36,25.73,25.73,0,0,0,3.06,5.24,25.78,25.78,0,0,0,1.77,2.51c.66.78,1.37,1.5,2,2.26A46.75,46.75,0,0,0,33,132.19c.78.68,1.6,1.28,2.34,2s1.59,1.39,2.42,2.06,1.78,1.4,2.64,2.13,1.64,1.48,2.52,2.14a7.93,7.93,0,0,0,1.3.74,4.48,4.48,0,0,1,1.05.75c.34.28,1,.8,1.53.51s0-.92-.28-1.14Z"/><path class="a74ac5b8-1f70-4ebf-9432-f9bedd35f69c" d="M25.88,100c-.08-.94.86-1.72,1.47-2.31s1.52-.82,2.19-1.38c1.3-1.06,2.25-2.75,4.05-3,2.06-.25,4.06.64,6.13.43a9.12,9.12,0,0,0,5.86-3.16,5.94,5.94,0,0,0,1.13-2.52A17.37,17.37,0,0,0,47.45,85a3.64,3.64,0,0,0-.11-1.54,5.65,5.65,0,0,1-.49-1.34,3.26,3.26,0,0,1,.57-2.47,1.57,1.57,0,0,1,1-.35,10.32,10.32,0,0,1,1.66-.21,4.07,4.07,0,0,1,1.17.32,10.23,10.23,0,0,1,1.61.56c.93.48,1.86.89,2.81,1.33a13.71,13.71,0,0,1,2.65,1.91c2,1.63,3.86,3.57,5.77,5.34a33.22,33.22,0,0,0,6.2,4.6,2.23,2.23,0,0,0,1.74.09c.28-.09.91-.5.4-.79a31.73,31.73,0,0,1-5.87-4.3C64.73,86.43,63,84.62,61.09,83a24.34,24.34,0,0,0-2.74-2.14c-.94-.59-2-.87-3-1.41A14.48,14.48,0,0,0,52,78.15a8.73,8.73,0,0,0-3.6,0,5.16,5.16,0,0,0-3.25,1.11,3.56,3.56,0,0,0-.84,2.48c0,1.08.67,1.88.65,3a15,15,0,0,1-.75,3.44,4.93,4.93,0,0,1-1.41,2.61,7.25,7.25,0,0,1-2.92,1.84,7.54,7.54,0,0,1-3-.25,13.3,13.3,0,0,0-3.51-.13,7.06,7.06,0,0,0-3.47,1.21,30.56,30.56,0,0,0-2.26,2.15c-.82.75-1.89,1-2.67,1.81s-1.72,1.62-1.63,2.75c.06.79,2.58.62,2.52-.16Z"/><path class="a74ac5b8-1f70-4ebf-9432-f9bedd35f69c" d="M65.59,137.54l-.21.12,1.23.43-.15-.12c-.11-.09.23.25.06.05l-.11-.12-.06-.07c.11.16,0-.06-.06-.07l-.1-.14a3.46,3.46,0,0,1-.22-.31c-.3-.43-.63-.85-.91-1.3l-.09-.15c0-.08-.09-.16,0,0-.07-.11-.13-.23-.2-.35a6.36,6.36,0,0,0-.49-.78l-.35-.42c-.12-.15,0,0,0,.05s-.05-.07-.08-.11-.13-.2,0-.05.05.08,0,0,0,0,0,.07,0-.1,0-.13c0,.13,0,0,0-.08.07-.53-.52-1.07-.93-1.31-.25-.15-1.08-.53-1.16,0a2.53,2.53,0,0,0,.81,1.92l.14.16c.13.16-.13-.18,0-.06l.1.14,0,.05.56,1c.31.49.67,1,1,1.44A7.73,7.73,0,0,0,65.83,139a2.31,2.31,0,0,0,.68.39.75.75,0,0,0,.55,0l.21-.12c.45-.28.06-.87-.21-1.14a2.53,2.53,0,0,0-.79-.58c-.18-.07-.49-.2-.68-.08Z"/><path class="a74ac5b8-1f70-4ebf-9432-f9bedd35f69c" d="M67,138.08c-.29-.34-.74-.51-1-.87a9,9,0,0,1-.72-1.37c-.21-.47-.39-1-.65-1.43a3.5,3.5,0,0,1-.59-1.25c0-.16-.27-.23-.38-.26a2.75,2.75,0,0,0-.9-.08,2.68,2.68,0,0,0-.89.15c-.11,0-.38.13-.36.29a3.86,3.86,0,0,0,.62,1.33c.27.46.44,1,.67,1.44a10.62,10.62,0,0,0,.74,1.42c.26.41.72.58,1,.94a1,1,0,0,0,.59.21,3.16,3.16,0,0,0,1,0c.16,0,1.15-.19.86-.52Z"/><path class="a74ac5b8-1f70-4ebf-9432-f9bedd35f69c" d="M65.68,135.89a27.93,27.93,0,0,0-1.79-3.59,9.65,9.65,0,0,1-.67-1.89,20.33,20.33,0,0,0-.76-2c-.18-.48-.88-.52-1.32-.46-.24,0-1.36.27-1.19.74.24.66.58,1.28.76,2a12.28,12.28,0,0,0,.68,2,34,34,0,0,1,1.78,3.51c.16.49.89.52,1.32.47.25,0,1.34-.27,1.19-.74Z"/><path class="a74ac5b8-1f70-4ebf-9432-f9bedd35f69c" d="M72.88,138.4c-.37-.35-.72-.73-1.1-1.06a6.4,6.4,0,0,0-1.35-.91,12.39,12.39,0,0,1-2.58-1.64,2.21,2.21,0,0,0-1.53-.36,2,2,0,0,0-.77.13c-.09.05-.27.17-.14.29a12.57,12.57,0,0,0,2.68,1.77,5.57,5.57,0,0,1,1.21.75c.4.35.76.73,1.13,1.1a2.22,2.22,0,0,0,1.54.36,2,2,0,0,0,.76-.13c.09,0,.27-.17.15-.3Z"/><path class="a74ac5b8-1f70-4ebf-9432-f9bedd35f69c" d="M70.4,137.08c-.22-.22-.43-.44-.66-.65s-.46-.36-.68-.56l-.11-.1c-.17-.16.14.18,0,0l-.22-.29c-.21-.27-.43-.54-.66-.79-.77-.81-1.7-1.45-2.49-2.24a1.57,1.57,0,0,0-1.78-.18.78.78,0,0,0-.13,1.3c.79.79,1.72,1.42,2.48,2.24,0,0,.14.12.14.15l-.07-.09.07.09c.09.1.16.21.24.31a5.19,5.19,0,0,0,.61.71c.21.19.45.35.66.54s.46.44.69.67a1.56,1.56,0,0,0,1.77.19.79.79,0,0,0,.14-1.3Z"/><path class="a74ac5b8-1f70-4ebf-9432-f9bedd35f69c" d="M69.37,135.5c-1.2-1.37-2.37-2.76-3.61-4.1a7.56,7.56,0,0,0-.77-.73l-.21-.19s0,0,0,0l-.07-.1c-.09-.16-.16-.31-.24-.47a5.08,5.08,0,0,0-.64-.88,6.09,6.09,0,0,0-.87-1,1.47,1.47,0,0,0-1.76.06.86.86,0,0,0-.14,1.37,3.5,3.5,0,0,1,.58.67,4.58,4.58,0,0,1,.62.89,7.17,7.17,0,0,0,1.5,1.66c1.16,1.23,2.24,2.54,3.35,3.82a1.37,1.37,0,0,0,1.66.29c.41-.2,1-.84.6-1.34Z"/><path class="a74ac5b8-1f70-4ebf-9432-f9bedd35f69c" d="M72,138.7c-.5-.52-.92-1.12-1.45-1.62s-1.1-1-1.64-1.47c-1-.94-2-2-3-2.85a15,15,0,0,1-2.6-3.18c-.64-.93-1.17-2-2.26-2.44a3.25,3.25,0,0,0-1.69-.38c-.48.1.16.4.34.48-.21-.09,0,.05,0,.11a3,3,0,0,0,.23.3c.14.21.28.43.41.65.31.47.65.93,1,1.41a12.78,12.78,0,0,0,2.55,2.84c1,.83,1.86,1.8,2.8,2.68.52.47,1.06.91,1.56,1.39s.9,1.06,1.38,1.55a3,3,0,0,0,1.44.61c.1,0,1.14.12.94-.08Z"/><path class="a74ac5b8-1f70-4ebf-9432-f9bedd35f69c" d="M65.51,134.4c-.12-.12-.24-.24-.35-.37.09.1,0,0,0,0l-.15-.2c-.21-.28-.39-.57-.58-.85.08.11,0,0,0-.05l-.14-.22-.27-.43c-.21-.34-.4-.67-.58-1l-.25-.49-.12-.25c-.09-.2,0,.12,0-.09s-.23-.66-.36-1a5.54,5.54,0,0,0-.6-1.16c-.07-.12-.16-.24-.24-.35s0,.08.06.11.06.25,0,.06a2.07,2.07,0,0,0-1-1.45c-.49-.25-.74,0-.71.51a3.06,3.06,0,0,0,.57,1.35c.08.14.18.27.27.4.22.33-.11-.27,0,0a22,22,0,0,0,1,2.45c.4.77.87,1.5,1.33,2.23a11.54,11.54,0,0,0,1.57,2c.23.23.88.76,1.13.27s-.26-1.2-.56-1.51Z"/><path class="a74ac5b8-1f70-4ebf-9432-f9bedd35f69c" d="M64,133.56a4.69,4.69,0,0,1-.71-1.2,6.91,6.91,0,0,1-.5-1.38,8.72,8.72,0,0,0-.52-1.4,3.55,3.55,0,0,0-.68-1.25,1.72,1.72,0,0,0-.52-.27,7.62,7.62,0,0,0-.91-.33,4.89,4.89,0,0,0-.74-.16s-.27,0-.16.08a3.57,3.57,0,0,1,.66,1.25c.09.22.2.43.3.65a8.12,8.12,0,0,1,.22.81,7.79,7.79,0,0,0,.5,1.32,5,5,0,0,0,.73,1.19,1.63,1.63,0,0,0,.52.28,8.88,8.88,0,0,0,.91.32,3.78,3.78,0,0,0,.74.17c.06,0,.26,0,.16-.08Z"/><path class="a74ac5b8-1f70-4ebf-9432-f9bedd35f69c" d="M63.24,131.9c-.27-.72-.58-1.42-.89-2.13s-.59-1.44-.91-2.15a6.38,6.38,0,0,1-.53-1.69,3,3,0,0,0-.61-1.62,1.92,1.92,0,0,0-1.71-.32c-.42.11-.87.42-.5.85l0,0a1.11,1.11,0,0,1,.07.16,2.06,2.06,0,0,1,.12.35c.06.23.08.47.12.7a7.21,7.21,0,0,0,.62,1.87c.3.67.55,1.36.85,2s.62,1.41.89,2.13,2.78.71,2.45-.21Z"/><path class="a74ac5b8-1f70-4ebf-9432-f9bedd35f69c" d="M64.4,130.11a18.64,18.64,0,0,0-2.12-3.17,9.25,9.25,0,0,0-.72-.81l-.31-.31-.14-.14s-.21-.23-.1-.1,0,0,0-.06a1.74,1.74,0,0,1-.11-.18l-.18-.34a1.73,1.73,0,0,0-.19-.28l-.1-.13c-.1-.14,0,.08,0,.15a1.37,1.37,0,0,0-1.25-1.13c-.48,0-1.27.15-1.21.8a1.86,1.86,0,0,0,.42,1c.15.2.24.42.37.63a8.48,8.48,0,0,0,1.33,1.48c.12.12-.1-.14,0,0l.16.2.27.36.57.76c.18.24.35.48.51.73l.27.43.1.17s.15.29.06.12a1.54,1.54,0,0,0,1.52.88c.47,0,1.14-.48.85-1.06Z"/><path class="a74ac5b8-1f70-4ebf-9432-f9bedd35f69c" d="M61.08,126.75c-.49-.86-1-1.72-1.4-2.61a2.63,2.63,0,0,0-.56-.72,2.51,2.51,0,0,0-.74-.51c-.13,0-.4-.15-.5,0s0,.35,0,.49c.42.9.91,1.76,1.4,2.62a3.19,3.19,0,0,0,.56.71,2.51,2.51,0,0,0,.74.51c.13.05.4.15.5,0a.48.48,0,0,0,0-.5Z"/><path class="a74ac5b8-1f70-4ebf-9432-f9bedd35f69c" d="M59.31,123.27l-.2-1a1.19,1.19,0,0,0-.21-.44,1.06,1.06,0,0,0-.33-.37,1.15,1.15,0,0,0-.43-.21,1,1,0,0,0-.43-.06l-.28.07a.89.89,0,0,0-.43.36l-.12.26a1.22,1.22,0,0,0,0,.6l.2,1a1.17,1.17,0,0,0,.2.44,1.37,1.37,0,0,0,.34.38,1,1,0,0,0,.42.2.83.83,0,0,0,.44.06l.28-.07a.84.84,0,0,0,.43-.36l.12-.26a1.18,1.18,0,0,0,0-.59Z"/><path class="a74ac5b8-1f70-4ebf-9432-f9bedd35f69c" d="M60.65,84.35c-.17-.16-.33-.33-.48-.5L60,83.59l-.09-.11c.2.24,0,0,0,0a9.64,9.64,0,0,0-1-1.12,8.13,8.13,0,0,1-.82-.84c-.11-.13.14.19.07.09a.86.86,0,0,0-.07-.1c0-.07-.1-.14-.14-.21l-.12-.2c-.09-.17,0,0,0,0a1.3,1.3,0,0,0-.08-.17,1.85,1.85,0,0,0-1.42-1,.92.92,0,0,0-.71.1.46.46,0,0,0-.13.54,6.41,6.41,0,0,0,1.61,2.18c.16.14.32.28.47.44l.24.29s.16.18,0,0,0,0,0,0A11.65,11.65,0,0,0,59,84.84a2.1,2.1,0,0,0,.83.51,1.35,1.35,0,0,0,.82.06A.46.46,0,0,0,61,85a1,1,0,0,0-.32-.64Z"/><path class="a74ac5b8-1f70-4ebf-9432-f9bedd35f69c" d="M60.33,84,60,83.75l.23.18a10.76,10.76,0,0,1-.95-.84,5.83,5.83,0,0,1-.74-.75l.17.26a3.47,3.47,0,0,1-.26-.55,2.6,2.6,0,0,0-.28-.45,2.86,2.86,0,0,0-.45-.4,1.24,1.24,0,0,0-.9-.14,1.4,1.4,0,0,0-.83.53,1.14,1.14,0,0,0-.23.86l.09.29a1.08,1.08,0,0,0,.41.44l0,0L56.06,83a1.07,1.07,0,0,1,.18.19L56.06,83c.15.21.21.48.35.7a4.26,4.26,0,0,0,.74.85c.24.21.46.44.7.65s.68.56,1,.83a1.28,1.28,0,0,0,.9.14,1.45,1.45,0,0,0,.83-.53,1.17,1.17,0,0,0,.23-.86l-.09-.29a1.09,1.09,0,0,0-.41-.44Z"/><path class="a74ac5b8-1f70-4ebf-9432-f9bedd35f69c" d="M59.63,83.38a7,7,0,0,0-2.23-2.51c-1.09-.69-2.17-1.4-3.32-2a2.19,2.19,0,0,0-.95-.2,1.46,1.46,0,0,0-.79.2c-.45.37-.07.78.32,1s.49.26.73.39c-.19-.1,0,0,0,0l.2.12.36.22c.48.3,1,.61,1.45.9a5.17,5.17,0,0,1,.53.39h0a1.85,1.85,0,0,1,.14.14,3.07,3.07,0,0,1,.25.26q.26.3.48.6c.07.1.14.19.2.29a.57.57,0,0,1,.08.13s.13.22,0,.06a1.63,1.63,0,0,0,1.48.69,1.36,1.36,0,0,0,.79-.21c.13-.11.3-.31.2-.5Z"/><path class="a74ac5b8-1f70-4ebf-9432-f9bedd35f69c" d="M64.89,85.69c-.59-.6-1.14-1.24-1.74-1.82a12.22,12.22,0,0,0-2.64-1.94,25.92,25.92,0,0,0-2.76-1.33l-.58-.23h0l-.47-.27a5.39,5.39,0,0,0-1.58-.63c-.54-.11.06.49.17.59a3.67,3.67,0,0,0,1.52.81c.1,0,.08,0-.08-.06.14.08.16.09.06,0,.22.12.43.25.65.36a10.76,10.76,0,0,0,1.16.51,20.9,20.9,0,0,1,2,1l.21.11c-.11-.06-.09,0,0,0l.11.09a8.18,8.18,0,0,1,.68.63c.5.51,1,1,1.47,1.54a3.89,3.89,0,0,0,1.52.94c.1,0,.35.13.43,0s-.15-.32-.21-.37Z"/><path class="a74ac5b8-1f70-4ebf-9432-f9bedd35f69c" d="M65,85.07a5.77,5.77,0,0,0-1.54-2.36,5.17,5.17,0,0,0-1.18-1.2,15,15,0,0,0-1.42-.63,14.27,14.27,0,0,0-3-1.36L57,79.33c.18,0,.09,0,0,0l-.28-.09A3.47,3.47,0,0,0,55.12,79c-1.55.21-.91,2.6.52,2.4.2,0-.12,0,0,0l.22,0c.2,0-.25-.09.11,0l.22.07c.43.14.86.22,1.29.33A9.31,9.31,0,0,1,59.89,83a6.66,6.66,0,0,0,1.06.46s.27.1.13,0c0,0,.17.13.07,0a5,5,0,0,1,.43.49c.22.29.46.55.69.82a4.94,4.94,0,0,1,.36.44c-.12-.16,0,0,0,0s.06.13,0,0,0-.08,0,0a1.36,1.36,0,0,0,1.42,1.07,1.08,1.08,0,0,0,.9-1.33Z"/><path class="a74ac5b8-1f70-4ebf-9432-f9bedd35f69c" d="M66.57,85.81a4.43,4.43,0,0,1-.29-.42,2.53,2.53,0,0,0-.55-.58c-.33-.27-.65-.54-1-.8-.69-.52-1.35-1.07-2-1.64a1.67,1.67,0,0,0-.9-.39,1.05,1.05,0,0,0-.77.2,1,1,0,0,0,.21,1.43c.64.55,1.28,1.09,1.95,1.6.32.24.63.5.94.75,0,0,.2.19.23.18s-.23-.25-.09-.07l.06.08c.11.15.19.31.31.45a1.75,1.75,0,0,0,.81.55,1.27,1.27,0,0,0,.86,0,.71.71,0,0,0,.46-.56,1,1,0,0,0-.24-.77Z"/><path class="a74ac5b8-1f70-4ebf-9432-f9bedd35f69c" d="M61.91,82.44a22.08,22.08,0,0,0-2-1.58c-.7-.48-1.46-.86-2.2-1.27a7.12,7.12,0,0,0-2.27-.87,16.59,16.59,0,0,0-2.82-.08c-.26,0,.37.75.42.81a6.35,6.35,0,0,0,.67.7c.11.1.33.36.48.36a18.42,18.42,0,0,1,2.68,0,6.31,6.31,0,0,1,2.18.77c.67.37,1.36.71,2,1.14a19.13,19.13,0,0,1,1.89,1.47s.28.24.35.18-.15-.36-.15-.36a6.91,6.91,0,0,0-1.21-1.32Z"/><path class="a74ac5b8-1f70-4ebf-9432-f9bedd35f69c" d="M58.81,81.84a4.68,4.68,0,0,0-.78-.63,8.16,8.16,0,0,0-.89-.44l.06,0a1,1,0,0,1-.36-.27,2.88,2.88,0,0,0-.28-.33c-.21-.18-.49-.26-.57-.56,0-.07-.4,0-.38,0a6.48,6.48,0,0,0-.87.21,6,6,0,0,0-.85.28s-.35.12-.33.2c.09.33.43.41.64.63s.19.25.3.36a1.8,1.8,0,0,0,.49.27l-.06,0a5,5,0,0,1,1.45,1c.06.07.33,0,.38,0a8.44,8.44,0,0,0,.87-.2,7.72,7.72,0,0,0,.85-.29s.36-.16.33-.2Z"/><path class="a74ac5b8-1f70-4ebf-9432-f9bedd35f69c" d="M58.45,81.9a2.19,2.19,0,0,0-.54-.46,3.64,3.64,0,0,1-.48-.32l.14.12c-.22-.2-.39-.43-.61-.63a7,7,0,0,0-.6-.48c-.42-.32-.86-.61-1.26-1-.15-.13-.54-.06-.7,0a2.23,2.23,0,0,0-.85.47,1.44,1.44,0,0,0-.47.67l0,.19a.35.35,0,0,0,.19.29c.59.52,1.27.92,1.86,1.45L55,82.11c.24.22.43.49.69.69s.46.27.66.44l-.13-.12a1.07,1.07,0,0,1,.14.16c.34.41,1.07.09,1.41-.15a1.81,1.81,0,0,0,.65-.64c.08-.16.2-.42.06-.59Z"/><path class="a74ac5b8-1f70-4ebf-9432-f9bedd35f69c" d="M58.7,82a4.56,4.56,0,0,0-1.05-.91,9.18,9.18,0,0,0-1.34-.81c-.88-.41-1.79-.8-2.66-1.23a1.8,1.8,0,0,0-1-.14,1.36,1.36,0,0,0-.78.37c-.38.47-.1,1,.4,1.22.83.41,1.68.77,2.52,1.16l.58.29c.13.07-.16-.12,0,0l.13.09.22.16c.16.11.33.21.48.33s.15.13.23.18-.12-.14,0,0l.1.12a1.58,1.58,0,0,0,1.71.41c.48-.19.9-.68.51-1.18Z"/><path class="a74ac5b8-1f70-4ebf-9432-f9bedd35f69c" d="M56.37,79A4.57,4.57,0,0,0,53.49,78c-.15,0,.1,0,0,0l-.16,0L53,77.84a2.37,2.37,0,0,0-.92,0c-.28,0-.53.14-.8.18.11,0,.09,0,0,0h-.69a2.06,2.06,0,0,0-1.57.86.58.58,0,0,0-.11.56c.1.19.35.21.54.21A6.09,6.09,0,0,0,51,79.43l.17,0c-.16,0-.06,0,0,0s-.12,0,0,0l.15,0a4.94,4.94,0,0,0,.75.14h.46a.9.9,0,0,1,.16,0,2.06,2.06,0,0,1,.52.15,5.39,5.39,0,0,1,1.16.73,1,1,0,0,0,.69,0,2.22,2.22,0,0,0,.88-.41c.28-.22.84-.76.41-1.1Z"/><path class="a74ac5b8-1f70-4ebf-9432-f9bedd35f69c" d="M55.3,78.9A4.46,4.46,0,0,0,53,77.71a20,20,0,0,0-2.46.34c-.75,0-1.48-.22-2.23-.16a3.19,3.19,0,0,0-2,1.06,6.82,6.82,0,0,0-1.51,2A5.31,5.31,0,0,0,44.45,83a5.43,5.43,0,0,0,.08,1.27,4.44,4.44,0,0,1,.17,1c0,.38-.2.71-.22,1.07s.23.85.2,1.3a5.45,5.45,0,0,1-2.35,3.68,8.61,8.61,0,0,1-4.61,1.19,2.39,2.39,0,0,1-.92,0,4,4,0,0,0-1.41-.37,12.22,12.22,0,0,0-2.49-.16,8.18,8.18,0,0,0-2.51,1,7,7,0,0,0-2,1.38c-.27.32-.41.73-.68,1a8.25,8.25,0,0,1-.85.69c-.33.3-.58.66-.91,1s-.73.61-1.07,1-.63.73-1,1.07-.65.54-.94.86a5.45,5.45,0,0,0-1,2.56c-.21.93,2.29,1.16,2.52.13a4.13,4.13,0,0,1,.72-2c.22-.24.5-.42.74-.65s.64-.71,1-1.06c.48-.52,1.06-.92,1.54-1.44a8.43,8.43,0,0,1,.65-.69A5.2,5.2,0,0,0,30,96c.2-.26.32-.58.53-.85a3.18,3.18,0,0,1,.69-.57,11.68,11.68,0,0,1,2.17-1.11c.22-.09.2,0,.51,0a5.84,5.84,0,0,0,1.18.13,4.53,4.53,0,0,1,.87.28,5.5,5.5,0,0,0,1.62.13c3.16-.06,6.58-.73,8.51-3.49A6.34,6.34,0,0,0,47,88.74a4.77,4.77,0,0,0,.24-1A5.36,5.36,0,0,0,47,86.63a2.28,2.28,0,0,1,.15-.81,3,3,0,0,0,0-1.15A10.77,10.77,0,0,1,47,82.26a2.9,2.9,0,0,1,.77-1.79c.14-.17.3-.34.45-.5s.64-.5.64-.6.07,0,.06,0-.6,0,.06.09a8.5,8.5,0,0,0,2.71,0,6.15,6.15,0,0,0,1.16-.29l-.31,0,.32.22c.2.16.4.33.6.48a1.82,1.82,0,0,0,1.78.1c.5-.28.48-.72.06-1Z"/><path class="a74ac5b8-1f70-4ebf-9432-f9bedd35f69c" d="M23.43,99.57a.83.83,0,0,0-.8.35c-.19.3-.31.64-.5.94A4.44,4.44,0,0,0,21,103.24a1.64,1.64,0,0,0,.2.56,7,7,0,0,0,.46.85,3.89,3.89,0,0,0,.43.63s.18.19.17,0a2.31,2.31,0,0,1,0-.46v.06a9,9,0,0,1,1.19-2.08c.15-.25.25-.56.42-.8a.87.87,0,0,1,.75-.28c.07,0-.1-.43-.08-.38a6.63,6.63,0,0,0-.4-.8,6,6,0,0,0-.47-.76c-.07-.08-.17-.26-.28-.26Z"/><path class="a74ac5b8-1f70-4ebf-9432-f9bedd35f69c" d="M22.7,100.92a4.87,4.87,0,0,1-.8,1,.14.14,0,0,0,.05.14.64.64,0,0,0,.2.2,4,4,0,0,0,.34.23c.14.08.28.16.43.23a4,4,0,0,0,.84.31c.12,0,.31.09.42,0a5.57,5.57,0,0,0,.8-1,.14.14,0,0,0-.05-.14.64.64,0,0,0-.2-.2,4,4,0,0,0-.34-.23c-.14-.08-.28-.16-.43-.23a3.53,3.53,0,0,0-.84-.31l-.2,0a.25.25,0,0,0-.22,0Z"/><path class="a74ac5b8-1f70-4ebf-9432-f9bedd35f69c" d="M57.78,120.15c.47,0,1.26-.19,1.27-.78s-.81-.82-1.25-.82-1.25.2-1.27.79.81.81,1.25.81Z"/><path class="a74ac5b8-1f70-4ebf-9432-f9bedd35f69c" d="M57,120.46a13.44,13.44,0,0,0,1,2c.09.15.38.11.5.08a2.37,2.37,0,0,0,.82-.38,2.3,2.3,0,0,0,.66-.62c.09-.14.21-.33.11-.5a13.94,13.94,0,0,1-1-2c-.06-.15-.41-.1-.5-.08a2.3,2.3,0,0,0-.82.39,2.44,2.44,0,0,0-.66.62.53.53,0,0,0-.11.49Z"/><path class="a74ac5b8-1f70-4ebf-9432-f9bedd35f69c" d="M57.86,120a30.55,30.55,0,0,0,3.48,6.59s.2.31.27.27-.07-.39-.07-.38a7.72,7.72,0,0,0-.86-1.57c-.07-.09-.07-.1,0,0l-.1-.15-.18-.26-.16-.27c.16.27,0-.07-.08-.12a1.71,1.71,0,0,0-.13-.23c.21.31,0,0-.05-.09a1.71,1.71,0,0,0-.13-.23c-.06-.13-.05-.11,0,.06a1.09,1.09,0,0,1-.08-.15c0-.09-.1-.19-.14-.28l-.06-.12c.07.14.07.16,0,0l-.26-.56a1.11,1.11,0,0,0-.07-.16c.05.1,0,.1,0,0l-.1-.25c-.09-.22-.18-.44-.26-.67a6.79,6.79,0,0,0-.86-1.56s-.21-.31-.28-.27.07.37.07.38Z"/><path class="a74ac5b8-1f70-4ebf-9432-f9bedd35f69c" d="M57.54,121.25c.86,1.47,1.38,3.11,2.19,4.62L61,128.23a12.28,12.28,0,0,0,1.35,2.26c.2.24,1,.11,1.27.09a5.29,5.29,0,0,0,.89-.12s.4-.1.36-.15a12.28,12.28,0,0,1-1.35-2.26c-.43-.79-.86-1.57-1.28-2.36-.81-1.5-1.33-3.14-2.19-4.62-.14-.24-1.05-.1-1.28-.09s-1.29.18-1.24.27Z"/><path class="a74ac5b8-1f70-4ebf-9432-f9bedd35f69c" d="M59.05,121.18a4.45,4.45,0,0,0-.69-2.22c-.36-.7-.78-1.51-1.24-2.23s-1-1.58-1.57-2.34-.93-1.45-1.46-2.14a11.35,11.35,0,0,0-.8-1,10.77,10.77,0,0,0-.91-.73c-.71-.61-1.32-1.33-2-1.95s-1.33-1.12-2-1.67a5.92,5.92,0,0,0-1.88-1.26c-.3-.09,0,.61,0,.67a4.14,4.14,0,0,0,.78,1.31A10,10,0,0,0,49,109a14.37,14.37,0,0,1,1.89,1.68c.59.59,1.18,1.18,1.73,1.82s.89,1.33,1.37,2a3.15,3.15,0,0,0,.41.48c.38.34-.17-.47,0-.13a7.58,7.58,0,0,0,.7,1.24,10.57,10.57,0,0,0,1.35,2.17c.49.46-.31-.92-.21-.46,0,.16.11.33.17.5.13.38.28.76.44,1.13.36.85.75,1.68,1.06,2.55.16.43.49,1.25.93,1.46s.23-.34.14-.59c-.35-.94-.77-1.84-1.16-2.76a22.71,22.71,0,0,0-1-2.4,5.7,5.7,0,0,0-.54-.81l-.21-.25q-.27-.3,0,.06c.14.26.15.27,0,0s-.11-.24-.17-.35a8.24,8.24,0,0,0-.42-.77,13,13,0,0,0-1.52-2.32c-.44-.46.11.32-.1-.09-.13-.24-.28-.47-.43-.7-.26-.38-.52-.76-.81-1.12a27,27,0,0,0-1.83-2c-.65-.66-1.3-1.33-2-1.93a20,20,0,0,1-2-1.52l.76,2a4.56,4.56,0,0,1,1.5,1c.51.43,1,.83,1.53,1.26s1.12,1,1.65,1.5c.28.28.54.56.82.82s.52.38.76.6a6.71,6.71,0,0,1,1.09,1.54c.38.61.82,1.17,1.24,1.75a17.35,17.35,0,0,1,1.14,1.78,4.42,4.42,0,0,1,.5,1.07,2.68,2.68,0,0,0,.57,1.46c0,.07.72.91.74.59Z"/><path class="a74ac5b8-1f70-4ebf-9432-f9bedd35f69c" d="M57.66,117l0,0,.13.15c-.41-.51-.58-1.17-.94-1.71a10.42,10.42,0,0,0-1.57-1.82,1.4,1.4,0,0,0-.76-.27,2.12,2.12,0,0,0-1,.1c-.41.16-.84.52-.42.92s.55.55.8.84l-.13-.15a5.81,5.81,0,0,1,.92,1.34c.11.22.21.45.32.67a3.57,3.57,0,0,0,.5.72,1.41,1.41,0,0,0,.77.27,2.14,2.14,0,0,0,1-.1c.2-.08.48-.2.56-.42s0-.34-.15-.5Z"/><path class="a74ac5b8-1f70-4ebf-9432-f9bedd35f69c" d="M54.39,112.67c-.17-.29-.34-.6-.53-.88a5.09,5.09,0,0,0-1.09-1.13,1.45,1.45,0,0,0-.44-.24,1.88,1.88,0,0,0-.46-.14,1.08,1.08,0,0,0-.4,0,.61.61,0,0,0-.31.11l-.12.15a.5.5,0,0,0,0,.4,1.52,1.52,0,0,0,.53.62l.08.07-.23-.2a2.53,2.53,0,0,1,.36.37l-.18-.22a8.17,8.17,0,0,1,.76,1.18,1.11,1.11,0,0,0,.3.31,1.62,1.62,0,0,0,.41.27,1.5,1.5,0,0,0,.46.17,1.24,1.24,0,0,0,.43,0c.2,0,.47-.07.55-.28a.67.67,0,0,0-.11-.62Z"/><path class="a74ac5b8-1f70-4ebf-9432-f9bedd35f69c" d="M20.24,106.16a44.75,44.75,0,0,0-.14,7.23,32.7,32.7,0,0,0,1.46,7.26c.08.25,2.35-.73,2.18-1.28a33,33,0,0,1-1.44-7,41.17,41.17,0,0,1,.12-7.28c0-.37-.83.07-1,.13-.28.14-1.2.57-1.23,1Z"/><path class="a74ac5b8-1f70-4ebf-9432-f9bedd35f69c" d="M21.63,118.81a.93.93,0,0,0,0,.9c.12.44.22.88.34,1.32a23,23,0,0,0,1.4,3.27,35.48,35.48,0,0,0,3.75,6.15c.23.29,1,.12,1.29.06.09,0,1.33-.32,1.2-.49a35,35,0,0,1-3.66-6A26.48,26.48,0,0,1,24.55,121c-.16-.46-.24-.94-.37-1.41-.08-.27-.33-.77-.13-1s-.85-.2-.92-.19c-.41,0-1.21.1-1.5.45Z"/><path class="a74ac5b8-1f70-4ebf-9432-f9bedd35f69c" d="M22.35,120.67c1.09,1.57,2.21,3.1,3.26,4.68.49.72,1,1.44,1.52,2.11s1.26,1.38,1.85,2.12a7.06,7.06,0,0,0,1.27,1.17c.1.07.77.53.47.15-.57-.72-1.22-1.37-1.81-2.06a24.88,24.88,0,0,1-1.59-2.22c-1.05-1.56-2.16-3.08-3.23-4.62a5.94,5.94,0,0,0-1.27-1.18c-.11-.08-.74-.54-.47-.15Z"/><path class="a74ac5b8-1f70-4ebf-9432-f9bedd35f69c" d="M29.82,128.35a35.43,35.43,0,0,0-2.53-3.69c-.42-.54-.9-1-1.3-1.59a6.85,6.85,0,0,0-1.52-1.66.65.65,0,0,0-1,.52,1.82,1.82,0,0,0,.8,1.6c-.09-.07,0,0,0,0l.14.13c-.19-.17,0,0,0,0a.91.91,0,0,1,.11.16l.5.7c.39.51.84,1,1.23,1.5l1.13,1.53c.19.27.38.53.55.8l.13.2s.18.28.1.14,0,.09.06.11a2,2,0,0,1,.14.25c.24.41.76,1,1.3.76s.39-1.1.16-1.5Z"/><path class="a74ac5b8-1f70-4ebf-9432-f9bedd35f69c" d="M26.29,123.88a63,63,0,0,1-2.65-6.62,1.42,1.42,0,0,0-1.62-.72,1,1,0,0,0-.73,1.3,64,64,0,0,0,2.65,6.63,1.42,1.42,0,0,0,1.62.71,1,1,0,0,0,.73-1.3Z"/><path class="a74ac5b8-1f70-4ebf-9432-f9bedd35f69c" d="M22.89,121.12c-.21-2.67-1.14-5.27-1.14-8,0-.46-.53-1-.81-1.34-.07-.07-.8-.79-.8-.49,0,2.68.93,5.28,1.14,8a2.87,2.87,0,0,0,.81,1.34c.07.07.82.78.8.5Z"/><path class="a74ac5b8-1f70-4ebf-9432-f9bedd35f69c" d="M21.82,114.72c-.06-.64-.18-1.28-.19-1.93s-.19-1.15-.22-1.74a35.18,35.18,0,0,1,.4-3.67.93.93,0,0,0-1-.94c-.44,0-1.41.21-1.45.82-.08,1.34-.45,2.65-.42,4,0,.59.2,1.15.22,1.74s.13,1.38.19,2.07.9.77,1.37.69,1.18-.42,1.13-1Z"/><path class="a74ac5b8-1f70-4ebf-9432-f9bedd35f69c" d="M19.7,104.5a19.67,19.67,0,0,0-.39,4.79c0,.79-.07,1.59-.06,2.38a22.1,22.1,0,0,0,.22,2.3,16.69,16.69,0,0,0,.76,4,29.05,29.05,0,0,0,2,4.19c.2.35,1.17.38,1.52.41.14,0,1.08.07.92-.23a27.65,27.65,0,0,1-2-4.24,19.56,19.56,0,0,1-.71-4,27.8,27.8,0,0,1-.14-4.47,19.67,19.67,0,0,1,.39-4.79c.08-.31-2.37-.82-2.5-.34Z"/><path class="a74ac5b8-1f70-4ebf-9432-f9bedd35f69c" d="M22.06,107.57s.12.19.12.18,0-.08,0-.1a2.81,2.81,0,0,0,.1-.31,4.83,4.83,0,0,0,.18-.84,7.15,7.15,0,0,1,.36-1.65c.19-.46.45-.9.65-1.37a4.18,4.18,0,0,1,.77-1.3c.11-.12-.07-.39-.12-.46a2.77,2.77,0,0,0-.66-.62c-.24-.17-1-.69-1.28-.38a4.54,4.54,0,0,0-.83,1.43,16.32,16.32,0,0,0-.72,1.6,15.47,15.47,0,0,0-.36,1.92c-.05.26-.18.49-.21.75a1.4,1.4,0,0,0,.52,1,2.68,2.68,0,0,0,1.5.87c.54,0,.16-.56,0-.75Z"/><path class="a74ac5b8-1f70-4ebf-9432-f9bedd35f69c" d="M21.88,105.08s-.14-.16,0,0,.08.11,0,0l.07.18,0-.12c0-.11,0-.14,0,.11a2.62,2.62,0,0,0,0-.28s0-.07,0-.11c0-.22-.07.27,0,0a5.52,5.52,0,0,1,.35-1c.09-.18,0,0,0,0l.09-.14a4.15,4.15,0,0,1,.24-.34c.16-.21.34-.42.49-.64s.28-.41.43-.61a1.78,1.78,0,0,1,.21-.27s.12-.12.12-.14-.21.19,0,0a1,1,0,0,0,.08-1.55,1.42,1.42,0,0,0-1.78-.09A8.16,8.16,0,0,0,21,101.73a9.8,9.8,0,0,0-1.08,1.63c-.44,1-.78,2.36.13,3.17a1.4,1.4,0,0,0,1.78.09,1,1,0,0,0,.08-1.54Z"/><path class="a74ac5b8-1f70-4ebf-9432-f9bedd35f69c" d="M23.74,98.59c-.48.47-.88,1-1.34,1.51a4.21,4.21,0,0,0-.55.71c-.17.31-.3.64-.46,1l.1-.2,0,.05a.42.42,0,0,0-.11.32.6.6,0,0,0,0,.37,1.63,1.63,0,0,0,.55.74,1.58,1.58,0,0,0,.85.36c.21,0,.55,0,.66-.24s.29-.62.44-.93l-.1.2a5.73,5.73,0,0,1,.9-1.13c.33-.4.66-.8,1-1.17.17-.16.13-.5.07-.69a1.76,1.76,0,0,0-1.4-1.1.8.8,0,0,0-.66.24Z"/><path class="a74ac5b8-1f70-4ebf-9432-f9bedd35f69c" d="M24.78,98.47a1.89,1.89,0,0,0-1,.88,7.12,7.12,0,0,1-.69,1,10.24,10.24,0,0,0-.85,1.22c-.28.48-.55,1-.84,1.44s.67.57.89.59a2.93,2.93,0,0,0,1-.07.94.94,0,0,0,.57-.3,23.06,23.06,0,0,1,1.6-2.54,7.33,7.33,0,0,0,.68-1,2.69,2.69,0,0,1,.28-.46c0-.05.19-.2.08-.11l.08-.06c.13-.11-.17.06,0,0S27,99,27,98.78s-.25-.3-.38-.34a2.75,2.75,0,0,0-1.79,0Z"/><path class="a74ac5b8-1f70-4ebf-9432-f9bedd35f69c" d="M21.38,103.25a24.69,24.69,0,0,0-1.19,5.29c0,.52.87.25,1.09.15a2.48,2.48,0,0,0,.83-.52,1,1,0,0,0,.35-.56,22.73,22.73,0,0,1,1.09-4.94c.05-.16.08-.32-.09-.42a.94.94,0,0,0-.66,0,2.75,2.75,0,0,0-.88.42c-.19.15-.47.35-.54.58Z"/><path class="a74ac5b8-1f70-4ebf-9432-f9bedd35f69c" d="M20.73,105.24a22.5,22.5,0,0,1-.75,4.17c-.16.4.88.12,1,.08a3.53,3.53,0,0,0,.88-.41,1.19,1.19,0,0,0,.45-.44,22.5,22.5,0,0,0,.75-4.17c.08-.42-.83-.14-1-.08a3.38,3.38,0,0,0-.88.42c-.14.09-.41.25-.45.43Z"/><path class="a74ac5b8-1f70-4ebf-9432-f9bedd35f69c" d="M20.31,107.47a33.4,33.4,0,0,0-.4,4.25.88.88,0,0,0,.43.67,1.31,1.31,0,0,0,.87.13,1.35,1.35,0,0,0,1.15-1.26c0-.49,0-1,.08-1.47l0,.27c.06-.84.17-1.67.3-2.51a.93.93,0,0,0-.19-.77,1.11,1.11,0,0,0-.77-.33,1.45,1.45,0,0,0-1.45,1Z"/><path class="a74ac5b8-1f70-4ebf-9432-f9bedd35f69c" d="M183.77,85a5.77,5.77,0,0,1,1.49-2.67c.71-.85,1.35-1.74,2-2.61a20.14,20.14,0,0,1,5.33-4.57c1.93-1.22,4.18-2.87,6.58-2.77a4.45,4.45,0,0,1,.89.13l.31.08c.62.14-.51.62-1-.75a10.81,10.81,0,0,1,.55,1.47,10.66,10.66,0,0,1-.24,3.77c-.09.56-.22,1.12-.3,1.68s0,1.31-.07,2a29.59,29.59,0,0,1-.73,3.61c-.42,2.06-.66,4.55.91,6.19a6.81,6.81,0,0,0,5.75,2.29,16.19,16.19,0,0,0,6-2.36A107,107,0,0,0,222.8,83,69.54,69.54,0,0,0,233,73.54a54.29,54.29,0,0,0,7.77-11.3,32.26,32.26,0,0,0,3.52-13.65c.15-5-1.14-9.77-2.33-14.6a87.73,87.73,0,0,1-2.37-15.37,12.7,12.7,0,0,0-.2-1.74c-.11-.53-.32-1-.41-1.59-.07-.38-.89-.82-1.19-1-.1-.06-.91-.54-.87-.3.1.55.3,1.06.41,1.6a14.25,14.25,0,0,1,.22,2.06c.07,1.25.22,2.48.36,3.72.3,2.53.66,5.06,1.15,7.56,1,5,2.75,9.94,3.1,15.09a32,32,0,0,1-2.13,13.87,47,47,0,0,1-7,11.72,74.38,74.38,0,0,1-21.25,17.86,45.7,45.7,0,0,1-5.67,3.08,10.2,10.2,0,0,1-3.17.8,6.18,6.18,0,0,1-1.55-.07c-.19,0-.39-.14-.57-.17.46.07.59.57.21,0a5.31,5.31,0,0,1-.62-3.37,24.57,24.57,0,0,1,.63-3.61c.13-.58.27-1.17.35-1.76s0-1.31.06-2c.12-1.18.43-2.34.56-3.52a6.31,6.31,0,0,0-.34-3.36,4.61,4.61,0,0,0-2.12-2c-1.91-1.07-4.06-.63-5.91.34a35.1,35.1,0,0,0-6.24,4.05,36.74,36.74,0,0,0-4.27,5,5.56,5.56,0,0,0-1.43,2.6c0,.3.72.75.92.89s1.13.68,1.15.55Z"/><path class="a74ac5b8-1f70-4ebf-9432-f9bedd35f69c" d="M260.52,137.5a7.89,7.89,0,0,0,2.51-4,5.47,5.47,0,0,1,.24-1.33,13.4,13.4,0,0,0,.6-1.4,18.94,18.94,0,0,0,.47-2.81c.27-2,.66-4,.83-6.09a31.15,31.15,0,0,0,0-6,22,22,0,0,0-1.53-6,14.52,14.52,0,0,0-3-4.43c-2.62-2.74-6-4.43-9.25-6.34-1.22-.72-2.91-1.73-2.82-3.38a6.91,6.91,0,0,1,.91-2.46,21.29,21.29,0,0,1,1.45-2.6A41.84,41.84,0,0,1,254.55,86c1.41-1.59,2.79-3.21,4.18-4.83a103.65,103.65,0,0,1,8.46-9.07,74,74,0,0,1,9.68-7.31A59.24,59.24,0,0,1,287.76,59c1.92-.76,3.88-1.42,5.83-2.08a29.65,29.65,0,0,1,6.15-1.48c1-.11,2.07-.21,3.09-.39.5-.08,1-.47.68-1a1.67,1.67,0,0,0-1.63-.64c-2.12.37-4.27.44-6.37,1s-4,1.22-6,1.91a59.18,59.18,0,0,0-11.34,5.24,87.59,87.59,0,0,0-10.27,7,75.28,75.28,0,0,0-8.7,8.52c-1.43,1.6-2.81,3.24-4.21,4.87s-2.78,3.16-4.13,4.77a27.15,27.15,0,0,0-3.34,4.85c-.83,1.62-2,3.46-1.21,5.3a7.62,7.62,0,0,0,3.49,3.38c1.59.93,3.18,1.85,4.76,2.8a15.47,15.47,0,0,1,7.1,8.22,27.07,27.07,0,0,1,.81,12.07c-.13,1-.29,2.1-.46,3.14s-.25,2-.43,3a6.41,6.41,0,0,1-.39,1.36,6.49,6.49,0,0,0-.58,1.39,7.45,7.45,0,0,1-.16,1.14,5.22,5.22,0,0,1-.5,1.07,7.19,7.19,0,0,1-1.41,1.87c-1,.9,1.2,1.93,2,1.26Z"/><path class="a74ac5b8-1f70-4ebf-9432-f9bedd35f69c" d="M183.41,81.08a8.92,8.92,0,0,0-2.21,4.12,1,1,0,0,0,1,1.12,1.42,1.42,0,0,0,1.41-1.06c0-.22.1-.43.17-.65l-.09.28a7,7,0,0,1,.79-1.63l-.16.25a10.41,10.41,0,0,1,1-1.32,1,1,0,0,0-.19-1.49,1.42,1.42,0,0,0-1.73.38Z"/><path class="a74ac5b8-1f70-4ebf-9432-f9bedd35f69c" d="M183.44,80.2a10.74,10.74,0,0,0-1.57,1.86,3.7,3.7,0,0,0-.71,2.51,1.23,1.23,0,0,0,.42.75,1.46,1.46,0,0,0,.92.33,1.25,1.25,0,0,0,.85-.3.92.92,0,0,0,.31-.76,2.16,2.16,0,0,1,0-.44l0,.29a2.56,2.56,0,0,1,.19-.77l-.11.27a6.29,6.29,0,0,1,1-1.55l-.18.22a10.72,10.72,0,0,1,.8-.85,1,1,0,0,0-.1-1.52,1.41,1.41,0,0,0-1.77,0Z"/><path class="a74ac5b8-1f70-4ebf-9432-f9bedd35f69c" d="M181.05,86.71,181,87a.24.24,0,0,0,.1.21.49.49,0,0,0,.25.17,2,2,0,0,0,.41.13,3.7,3.7,0,0,0,.48.06h.34a1.81,1.81,0,0,0,.56-.12l.2-.1a.35.35,0,0,0,.18-.26l.09-.28a.24.24,0,0,0-.1-.21.49.49,0,0,0-.25-.17,2,2,0,0,0-.41-.13,3.7,3.7,0,0,0-.48-.06H182a2.15,2.15,0,0,0-.56.12l-.2.1a.35.35,0,0,0-.18.26Z"/><path class="a74ac5b8-1f70-4ebf-9432-f9bedd35f69c" d="M182.09,88.17c.41-.58.84-1.16,1.23-1.76.17-.27.36-.53.56-.79a2.82,2.82,0,0,0,.21-.38l.12-.19.06-.08c0-.07-.1.09,0,0s.17-.21.05-.32a1.12,1.12,0,0,0-.62-.09,3.91,3.91,0,0,0-1,.2,1.9,1.9,0,0,0-.69.36,4.08,4.08,0,0,0-.54.81c-.18.28-.4.54-.59.82-.39.62-.83,1.21-1.25,1.82-.1.14.1.23.2.26a1.82,1.82,0,0,0,.77,0,3.48,3.48,0,0,0,.94-.27,1.15,1.15,0,0,0,.5-.37Z"/><path class="a74ac5b8-1f70-4ebf-9432-f9bedd35f69c" d="M182.61,88.38a20,20,0,0,1,1.33-2.66.51.51,0,0,0-.06-.59,1,1,0,0,0-.69-.25,1.83,1.83,0,0,0-1.56.8,20.13,20.13,0,0,0-1.33,2.67.53.53,0,0,0,.06.59,1,1,0,0,0,.7.24A1.92,1.92,0,0,0,182,89a1.3,1.3,0,0,0,.61-.57Z"/><path class="a74ac5b8-1f70-4ebf-9432-f9bedd35f69c" d="M183.7,87.53A22.27,22.27,0,0,1,185,83.81c.07-.15-.1-.21-.21-.24a2,2,0,0,0-.77.06,3.26,3.26,0,0,0-.92.33,1,1,0,0,0-.49.39,23.09,23.09,0,0,0-1.33,3.71c-.11.42.81.23,1,.19a4,4,0,0,0,.92-.33c.15-.09.44-.21.49-.39Z"/><path class="a74ac5b8-1f70-4ebf-9432-f9bedd35f69c" d="M184,86.67c.08-.23.13-.39.24-.68s.23-.54.36-.8c.26-.49.53-1,.77-1.47.53-1.12,1-2.25,1.59-3.36.64-1.27-1.73-2.11-2.31-.93s-1.1,2.31-1.65,3.47c-.25.53-.56,1-.81,1.56a14.46,14.46,0,0,0-.68,1.8.92.92,0,0,0,.25.77,1.42,1.42,0,0,0,.83.45,1.21,1.21,0,0,0,1.41-.81Z"/><path class="a74ac5b8-1f70-4ebf-9432-f9bedd35f69c" d="M181.66,86.48a5.68,5.68,0,0,0,.28-.55c.05-.08.09-.19.15-.27s-.14.21,0,.07a.94.94,0,0,1,.09-.12c.06-.08.34-.35.06-.08l.24-.25.49-.49c.32-.32.7-.58,1-.89l.22-.22.12-.11s.2-.17,0,0,.07,0,.13-.06a2.62,2.62,0,0,0,.48-.34,1.39,1.39,0,0,0,.44-.72.62.62,0,0,0-.22-.6,1.45,1.45,0,0,0-1.62.33c-.08.07-.06.06,0,0s.12-.09,0,0l-.12.07a2.91,2.91,0,0,0-.46.32c-.18.14-.32.31-.48.46-.36.33-.75.62-1.1,1a16.3,16.3,0,0,0-1.14,1.21,9.72,9.72,0,0,0-.76,1.33.73.73,0,0,0,0,.69.7.7,0,0,0,.62.29,1.79,1.79,0,0,0,1.51-.94Z"/><path class="a74ac5b8-1f70-4ebf-9432-f9bedd35f69c" d="M182.5,85.94a10.45,10.45,0,0,1,1.36-1.61c.51-.5,1.08-.93,1.59-1.44.06-.06-.23-.33-.23-.33a6.28,6.28,0,0,0-.7-.55,6,6,0,0,0-.77-.45c-.08,0-.31-.17-.39-.09-.5.51-1.08.93-1.59,1.44a10.37,10.37,0,0,0-1.36,1.6c0,.08.22.32.23.33a5.29,5.29,0,0,0,.7.55,5.05,5.05,0,0,0,.77.46c.07,0,.33.17.39.09Z"/><path class="a74ac5b8-1f70-4ebf-9432-f9bedd35f69c" d="M183.15,84.59a9.35,9.35,0,0,1,.9-1c.34-.33.61-.73,1-1l-.12.11c.28-.25.57-.48.83-.74s-.06-.26-.14-.31a1.88,1.88,0,0,0-.77-.14,3.53,3.53,0,0,0-1,.11,1.21,1.21,0,0,0-.56.29l-.17.16.12-.11c-.25.23-.52.43-.77.67s-.39.46-.59.68c-.38.43-.81.8-1.16,1.26-.1.14,0,.25.15.31a1.8,1.8,0,0,0,.76.14,3.48,3.48,0,0,0,1-.11,1,1,0,0,0,.56-.28Z"/><path class="a74ac5b8-1f70-4ebf-9432-f9bedd35f69c" d="M182.29,86.63a17.56,17.56,0,0,1,2-2.47c.09-.1,0-.34,0-.43a3.27,3.27,0,0,0-.44-.77,3.9,3.9,0,0,0-.6-.68c-.06,0-.29-.27-.39-.17a17.63,17.63,0,0,0-2,2.47c-.09.12,0,.31,0,.42a3.37,3.37,0,0,0,.45.78,3.47,3.47,0,0,0,.59.68s.32.27.39.17Z"/><path class="a74ac5b8-1f70-4ebf-9432-f9bedd35f69c" d="M182.64,86.15l.29-.48a.45.45,0,0,0,.06-.32.57.57,0,0,0-.09-.36.94.94,0,0,0-.27-.35,1.15,1.15,0,0,0-.38-.31l-.3-.15a1.7,1.7,0,0,0-.59-.1l-.25,0a.55.55,0,0,0-.36.27l-.29.47a.48.48,0,0,0-.06.33.57.57,0,0,0,.09.36,1.1,1.1,0,0,0,.26.35,1.48,1.48,0,0,0,.39.31l.3.14a1.5,1.5,0,0,0,.59.1l.25,0a.62.62,0,0,0,.36-.27Z"/><path class="a74ac5b8-1f70-4ebf-9432-f9bedd35f69c" d="M180.75,91c.22-.38.44-.76.68-1.12l-.16.24a5.46,5.46,0,0,1,.46-.59,1.15,1.15,0,0,0,.28-.83,1.08,1.08,0,0,0-.11-.47,1.21,1.21,0,0,0-.27-.43,1.25,1.25,0,0,0-.8-.41,1,1,0,0,0-.79.3,11.27,11.27,0,0,0-1.31,2,.91.91,0,0,0-.1.43,1,1,0,0,0,0,.47,1.07,1.07,0,0,0,.23.45,1,1,0,0,0,.34.34,1.13,1.13,0,0,0,.85.19l.27-.1a.88.88,0,0,0,.39-.42Z"/><path class="a74ac5b8-1f70-4ebf-9432-f9bedd35f69c" d="M181.7,90l.47-.76a.27.27,0,0,0,0-.23.55.55,0,0,0-.11-.29,1.59,1.59,0,0,0-.25-.33,1.86,1.86,0,0,0-.36-.33l-.28-.19a2,2,0,0,0-.52-.24l-.22,0a.33.33,0,0,0-.3.1l-.48.76a.24.24,0,0,0,0,.23.51.51,0,0,0,.1.29,1.46,1.46,0,0,0,.26.34,1.91,1.91,0,0,0,.36.33l.28.19a2.22,2.22,0,0,0,.52.23l.22,0a.33.33,0,0,0,.3-.1Z"/><path class="a74ac5b8-1f70-4ebf-9432-f9bedd35f69c" d="M182.13,89.15c.58-.91,1.19-1.79,1.81-2.67a1,1,0,0,0,0-.77,1.71,1.71,0,0,0-.57-.8,1.23,1.23,0,0,0-.79-.32l-.24,0a.63.63,0,0,0-.34.3c-.62.88-1.24,1.76-1.81,2.67a1,1,0,0,0,0,.77,1.82,1.82,0,0,0,.57.8c.41.31,1,.51,1.37,0Z"/><path class="a74ac5b8-1f70-4ebf-9432-f9bedd35f69c" d="M184,86.58l1.14-1.81a.78.78,0,0,0,.19-.41.85.85,0,0,0,0-.45,1.37,1.37,0,0,0-1.4-1.11,1.06,1.06,0,0,0-.79.4L182,85a.81.81,0,0,0-.19.41,1,1,0,0,0,0,.45,1.43,1.43,0,0,0,.49.82,1.36,1.36,0,0,0,.91.29,1.06,1.06,0,0,0,.79-.4Z"/><path class="a74ac5b8-1f70-4ebf-9432-f9bedd35f69c" d="M186,83.9c.54-.84,1.11-1.67,1.71-2.47a1,1,0,0,0,.1-.82,1,1,0,0,0-.59-.57,1.47,1.47,0,0,0-.95,0l-.3.15a1.29,1.29,0,0,0-.43.44c-.61.8-1.18,1.62-1.72,2.47a1,1,0,0,0-.1.82,1.05,1.05,0,0,0,.6.57A1.47,1.47,0,0,0,186,83.9Z"/><path class="a74ac5b8-1f70-4ebf-9432-f9bedd35f69c" d="M259.51,140.85c.43-.75.84-1.51,1.25-2.28a18.86,18.86,0,0,0,1.14-2.24c.06-.17-.14-.5-.22-.62a2.66,2.66,0,0,0-.68-.7c-.26-.18-.91-.59-1.09-.11l-.18.44.06-.13c-.3.65-.69,1.27-1,1.91s-.74,1.36-1.12,2c-.24.42.28,1,.57,1.24a2.2,2.2,0,0,0,.76.49c.13,0,.44.13.53,0Z"/><path class="a74ac5b8-1f70-4ebf-9432-f9bedd35f69c" d="M258.54,141.19a13.8,13.8,0,0,1,1.1-2.6c.21-.39.36-.81.58-1.2a2.65,2.65,0,0,1,.33-.42,1.07,1.07,0,0,0,.27-.59,1.67,1.67,0,0,0-.17-.77,3.11,3.11,0,0,0-.5-.84c-.21-.23-.69-.64-.77-.1,0-.06,0,0,0,0l-.06.11-.12.16a1.89,1.89,0,0,0-.36.48c-.21.39-.38.81-.59,1.21a12.9,12.9,0,0,0-1.05,2.52,2,2,0,0,0,.44,1.53c.09.11.78,1,.92.5Z"/><path class="a74ac5b8-1f70-4ebf-9432-f9bedd35f69c" d="M258.75,139c.18-.32.37-.64.57-.95l-.14.21a9.25,9.25,0,0,1,1.13-1.37.63.63,0,0,0-.32-1.1,1.81,1.81,0,0,0-1.72.5,10.5,10.5,0,0,0-1.84,2.54.6.6,0,0,0,.05.63,1,1,0,0,0,.7.31,1.69,1.69,0,0,0,1.57-.77Z"/><path class="a74ac5b8-1f70-4ebf-9432-f9bedd35f69c" d="M260.1,136.93a13.81,13.81,0,0,1,.9-1.7c.05-.08-.45-.12-.39-.12a5.3,5.3,0,0,0-.89,0,5.2,5.2,0,0,0-.88.14l-.2.06a.23.23,0,0,0-.16.13,12.45,12.45,0,0,0-.89,1.7c0,.08.43.11.38.11a7.33,7.33,0,0,0,1.78-.17c.11,0,.3-.06.35-.18Z"/><path class="a74ac5b8-1f70-4ebf-9432-f9bedd35f69c" d="M260,136.25a10.17,10.17,0,0,1,.62-.81c.11-.12.21-.24.32-.35a3.47,3.47,0,0,0,.31-.36c.05,0,.05-.06,0-.06a.15.15,0,0,0-.16,0,4,4,0,0,0-.74.17,8.92,8.92,0,0,0-.91.33l-.24.1a1.18,1.18,0,0,0-.29.16,2.52,2.52,0,0,1-.3.35c-.12.12-.22.24-.33.37a7.79,7.79,0,0,0-.62.8c-.05,0-.05.05,0,.06a.22.22,0,0,0,.16,0,4.44,4.44,0,0,0,.74-.18,7.71,7.71,0,0,0,.92-.32l.23-.1a1.35,1.35,0,0,0,.29-.16Z"/><path class="a74ac5b8-1f70-4ebf-9432-f9bedd35f69c" d="M261.18,135.9a7.06,7.06,0,0,1,.63-.72.27.27,0,0,0,.06-.27.4.4,0,0,0-.1-.29,1,1,0,0,0-.29-.25,1.4,1.4,0,0,0-.41-.19l-.32-.08a2.36,2.36,0,0,0-.65,0l-.27.07a.81.81,0,0,0-.37.26,8.42,8.42,0,0,0-.62.72.32.32,0,0,0-.07.28.35.35,0,0,0,.11.28.71.71,0,0,0,.29.25,1.14,1.14,0,0,0,.4.19l.33.08a2,2,0,0,0,.64,0l.27-.07a.76.76,0,0,0,.37-.26Z"/><path class="a74ac5b8-1f70-4ebf-9432-f9bedd35f69c" d="M261.81,134.56l.26-.44a.2.2,0,0,0,.08-.2c0-.06,0-.11-.08-.14a.57.57,0,0,0-.26,0,1.18,1.18,0,0,0-.37.05l-.29.08a4.78,4.78,0,0,0-.62.26l-.26.16a1.74,1.74,0,0,0-.36.31l-.27.44a.23.23,0,0,0-.08.2.13.13,0,0,0,.09.14.57.57,0,0,0,.26,0,1.47,1.47,0,0,0,.36,0l.3-.09a4.14,4.14,0,0,0,.61-.26l.27-.16a1.74,1.74,0,0,0,.36-.31Z"/><path class="a74ac5b8-1f70-4ebf-9432-f9bedd35f69c" d="M262.48,135l.18-.72a.14.14,0,0,0-.13-.07.5.5,0,0,0-.27,0,2.71,2.71,0,0,0-.41,0,4.1,4.1,0,0,0-.48.1l-.32.09a4.71,4.71,0,0,0-.52.21l-.18.11a.2.2,0,0,0-.13.18l-.18.71a.14.14,0,0,0,.13.08.86.86,0,0,0,.28,0,2.73,2.73,0,0,0,.4,0,3.7,3.7,0,0,0,.48-.09l.32-.1a2.66,2.66,0,0,0,.53-.21l.17-.1a.22.22,0,0,0,.13-.18Z"/><path class="a74ac5b8-1f70-4ebf-9432-f9bedd35f69c" d="M262.1,134.85c.33,0-.2-.8-.26-.9s-.69-1.15-1.06-1.15.2.8.26.9c.16.25.69,1.15,1.06,1.15Z"/><path class="a74ac5b8-1f70-4ebf-9432-f9bedd35f69c" d="M249.39,22.22a18,18,0,0,1-2.17-1.42c-2.55-2.19-5.06-4.43-7.56-6.68-1-.86-1.93-1.74-2.81-2.69-.68-.73-1.08-.34-1.24.29a48.68,48.68,0,0,0-1.3,5.81c-.46,3.51-.73,7-1.1,10.57a.64.64,0,0,1-.38.48c.12-1.83.24-3.67.37-5.5a4.18,4.18,0,0,0,.05-.93,4.78,4.78,0,0,0-.35-.93c-.27.18-.54.34-.79.53a4.71,4.71,0,0,0-.54.6,61.41,61.41,0,0,0,2.35-6.91c.48-2.2,1.78-4.44.4-6.9,2,.45,1.44-1.18,1.84-2.32,1.54,1.41,3,2.68,4.38,4,2.66,2.54,5.28,5.11,7.9,7.69.58.56,1.26,1.18,0,1.85l1.33,2Z"/><path class="a74ac5b8-1f70-4ebf-9432-f9bedd35f69c" d="M295.29,66.61a18,18,0,0,1,1.41-2.17c2.2-2.55,4.44-5.06,6.69-7.56a37.49,37.49,0,0,1,2.68-2.81c.73-.68.34-1.08-.28-1.24a48.68,48.68,0,0,0-5.81-1.3c-3.51-.46-7.05-.73-10.57-1.1a.64.64,0,0,1-.48-.39l5.5.38a4.18,4.18,0,0,0,.93,0,4.25,4.25,0,0,0,.93-.36c-.18-.26-.34-.53-.53-.78a5.57,5.57,0,0,0-.6-.54,60.74,60.74,0,0,0,6.91,2.35c2.2.48,4.44,1.78,6.9.4-.45,2,1.17,1.44,2.32,1.84-1.41,1.54-2.68,3-4,4.38q-3.81,4-7.69,7.9c-.56.57-1.19,1.26-1.85,0L295.69,67Z"/><text class="e26744bc-cecc-4c51-ac3f-bd44a48cd50b" transform="translate(266.65 159.64)">®</text></svg>