<?xml version="1.0" encoding="utf-8"?>
<svg version="1.1" id="Livello_1" xmlns="http://www.w3.org/2000/svg" xmlns:xlink="http://www.w3.org/1999/xlink" x="0px" y="0px"
	 viewBox="0 0 595.28 841.89" style="enable-background:new 0 0 595.28 841.89;" xml:space="preserve">
<style type="text/css">
	.st0{fill:#3F51B5;}
	.st1{fill:#FF4081;}
	.st2{fill:#FFFFFF;}
	.st3{font-family:'SignPainter-HouseScript';}
	.st4{font-size:24.4754px;}
</style>
<ellipse class="st0" cx="266.96" cy="174.67" rx="144.44" ry="65.15"/>
<path class="st1" d="M265.72,243.9c-38.88,0-75.47-6.84-103.02-19.27c-28.1-12.67-43.57-29.73-43.57-48.03
	c0-18.3,15.47-35.35,43.57-48.03c27.55-12.43,64.14-19.27,103.02-19.27c38.88,0,75.47,6.84,103.02,19.27
	c28.1,12.67,43.57,29.73,43.57,48.03c0,18.3-15.47,35.35-43.57,48.03C341.19,237.06,304.6,243.9,265.72,243.9z M265.72,113.6
	c-38.28,0-74.24,6.71-101.25,18.89c-26.47,11.94-41.04,27.6-41.04,44.11s14.58,32.17,41.04,44.11
	c27.01,12.18,62.97,18.89,101.25,18.89s74.24-6.71,101.25-18.89c26.47-11.94,41.04-27.6,41.04-44.11s-14.58-32.17-41.04-44.11
	C339.96,120.31,304,113.6,265.72,113.6z"/>
<path class="st2" d="M199.04,169.37c3.62-4.19,4.03-7.97,0.9-10.19c-4.6-3.29-15.13-7.65-14.88-12.99
	c0.41-10.28,20.64-22.85,23.43-19.98c1.97,2.06-4.19,8.88-5.92,12.82c-1.73,3.86-0.74,6.41,0.82,7.97c0.9,0.9,1.4,0.49,1.81-0.25
	c1.15-2.06,3.54-6.25,5.67-9.13c1.23-1.73,3.21-4.93,2.38-8.22c-0.58-2.3-2.06-5.01-4.11-6.91c-2.71-2.47-6.66-1.81-10.61-0.16
	c-7.32,3.12-20.06,12.74-20.06,24.01c0,8.47,12.99,13.56,17.35,17.26c1.15,0.99,1.56,2.71,0.16,4.28c-1.07,0.9-2.8,1.48-5.1,1.48
	c-5.34,0-10.93-4.28-14.22-6.91c-2.22-1.81-5.59-2.55-8.3-1.73c-0.74,0.25-1.07,0.82-0.16,1.89
	C179.8,176.61,194.11,175.05,199.04,169.37z"/>
<path class="st2" d="M243.76,139.53c1.07-1.15,1.64-3.37,0.58-5.51c-1.07-2.22-3.45-3.21-4.77-1.81c-1.32,1.4-1.73,3.86-0.41,6.08
	C240.39,140.44,242.69,140.68,243.76,139.53z"/>
<path class="st2" d="M219.67,182.66c-0.58-2.3-2.06-5.01-4.11-6.91c-2.71-2.47-6.66-1.81-10.61-0.16
	c-7.32,3.12-20.06,12.74-20.06,24.01c0,8.47,12.99,13.56,17.35,17.26c1.15,0.99,1.56,2.71,0.16,4.28c-1.07,0.9-2.8,1.48-5.1,1.48
	c-5.34,0-10.93-4.28-14.22-6.91c-2.22-1.81-5.59-2.55-8.3-1.73c-0.74,0.25-1.07,0.82-0.16,1.89c11.59,13.98,25.9,12.41,30.83,6.74
	c3.62-4.19,4.03-7.97,0.9-10.19c-4.6-3.29-15.13-7.65-14.88-12.99c0.41-10.28,20.64-22.85,23.43-19.98
	c1.97,2.06-4.19,8.88-5.92,12.82c-1.73,3.86-0.74,6.41,0.82,7.97c0.9,0.9,1.4,0.49,1.81-0.25c1.15-2.06,3.54-6.25,5.67-9.13
	C218.51,189.16,220.49,185.95,219.67,182.66z"/>
<path class="st2" d="M370.28,212.34c-0.41-0.58-1.07-0.58-1.48,0.16c-3.21,5.76-6.91,11.18-10.28,11.26
	c-2.96,0.08-4.11-3.7-1.81-8.39c2.06-4.11,6.08-9.54,7.56-13.24c1.64-4.11,0.99-8.96-1.97-9.04c-2.71-0.08-8.22,3.78-12.17,7.65
	c1.07-3.62-0.41-7.97-3.21-8.06c-2.96-0.08-9.13,4.77-12.74,8.96c1.23-3.29,1.48-6.5,0.08-8.8c-0.49-0.82-1.15-0.9-1.73,0
	c-5.18,7.73-11.18,19.32-12.91,24.5c-0.09,0.28-0.16,0.54-0.24,0.8c-2.43,3.32-5.17,5.83-7.41,5.94c-2.8,0.16-2.71-3.37-0.66-7.97
	c1.97-4.36,6.08-10.52,7.89-14.22c1.97-4.11,1.32-7.65,0.08-9.13c-0.58-0.74-1.23-0.58-1.97,0.49c-0.9,1.32-1.89,3.04-2.96,5.01
	c0.16-3.21-1.48-5.92-5.01-5.92c-4.11,0-10.61,3.7-17.26,13.4c-1.67,2.43-2.83,4.89-3.53,7.22c-3.58,5.27-9.35,11.26-15.87,10.95
	c-4.36-0.25-6.33-5.43-3.7-12.99c5.75,4.69,11.26,2.55,15.29-2.38c3.45-4.19,4.11-9.21,2.63-11.18c-1.32-1.81-2.79-3.04-4.85-4.28
	c-4.11-2.38-12.5,1.89-17.84,12.5c-1.45,2.88-2.24,5.74-2.41,8.36c-2.7,5.6-6.54,10.2-9.68,10.05c-2.47-0.08-3.54-3.37-2.06-7.89
	c1.4-4.36,5.51-9.87,9.45-14.3c2.47-2.8,0.33-6.49-1.23-8.3c-0.74-0.82-1.32-0.58-2.38,0.16c-3.04,2.14-6.08,3.54-8.96,3.78
	c2.22-5.34,3.04-10.44,0.33-10.28c-3.37,0.16-11.43,11.26-5.26,13.73c-5.1,12.74-13.73,22.85-18.66,23.02
	c-3.37,0.08-4.52-4.93-1.73-11.1c3.12-6.91,7.89-14.8,11.1-20.39c2.22-0.16,4.27-0.16,5.92-0.08c1.23,0.08,1.64-0.33,1.15-1.23
	c-0.74-1.32-2.3-2.71-4.93-2.88c1.08-2.38,1.57-4.3,1.67-5.93c2.93-6.28,5.9-12.1,8.7-17.22c0.25,2.06,1.07,3.95,2.8,5.51
	c2.88,2.63,6.33,3.37,11.59,3.04c5.15-0.36,10.05-2.46,13.29-6.73c0.94,3.76,3.78,5.98,7.02,6.08c6.58,0.25,12-6.99,13.07-9.37
	c0.82-1.89,1.23-3.37,0.82-4.69c-0.33-1.15-1.23-0.99-1.73,0c-3.04,6.17-7.73,12-11.43,11.84c-3.45-0.16-4.36-5.26-1.64-11.26
	c3.12-6.91,7.81-14.88,11.02-20.39c2.06-0.33,4.6-0.58,6.41-0.33c1.23,0,1.56-0.58,0.99-1.56c-0.66-1.07-1.89-2.55-5.1-2.47
	c1.97-4.28,1.97-6.99,1.07-9.29c-0.41-0.99-1.23-1.07-1.97,0c-1.4,1.81-3.7,5.67-6.25,10.19c-2.22,0.25-4.52,0.41-6.82,0.33
	c-1.23-0.08-1.73,0.49-0.9,1.64c0.66,0.9,2.55,2.14,5.34,2.14c-3.54,6.49-6.99,13.4-8.71,17.51c-0.56,1.34-0.93,2.6-1.18,3.79
	c-2.79,5.05-7.51,9.91-14.77,10.35c3.12-1.89,6.17-5.84,8.63-11.26c3.04-6.74,4.85-14.06,0.9-18.25c-3.53-3.7-8.39-1.4-12,1.73
	c0.08-1.4-0.08-2.63-0.49-3.7c-0.41-0.99-1.15-1.15-1.97-0.08c-3.25,4.34-9.92,16.24-15.03,26.46c-2.07,2.48-4.37,4.19-6.43,4.28
	c-2.63,0.16-2.8-3.04-0.82-7.81c1.73-4.11,5.18-9.7,6.91-13.32c1.97-4.11,1.32-7.65,0.08-8.96c-0.66-0.74-1.23-0.49-1.97,0.49
	c-3.04,4.28-8.47,13.98-10.52,19.98c-0.02,0.06-0.03,0.12-0.05,0.17c-3.3,5.27-8.05,9.65-11.46,9.36c-3.7-0.33-2.8-7.15,0.49-15.21
	c7.32-4.77,16.52-14.63,19.07-24.75c0.99-3.86,0.49-6.91-1.89-9.04c-1.15-1.07-2.3-0.9-3.54,0.41c-8.39,8.71-17.76,23.6-20.8,37.9
	c-1.89,8.88,1.15,12.83,6.82,12.99c4.03,0.1,7.84-2.42,10.45-4.96c0.48,3.12,2.55,5.12,6.4,5.12c1.48,0,3.01-0.36,4.5-1.01
	c-1.73,3.69-3.06,6.82-3.68,8.82c-0.28,0.9-0.5,1.72-0.66,2.46c-1,1.68-2.11,3.63-3.3,5.73c-1.97,0.16-4.11,0.41-6.74,0.25
	c-1.23-0.08-1.64,0.58-0.9,1.64c0.74,1.07,2.55,2.22,5.26,2.3c-3.54,6.33-7.07,13.32-8.71,17.35c-3.95,9.45,0.49,15.7,6,15.7
	c8.63,0,17.18-12.41,22.61-24.83c2.71,0,6.33-0.82,10.03-3.12c-3.54,3.95-8.55,10.11-10.28,15.62c-2.06,6.58,0.41,12.25,6.66,12.5
	c4.05,0.15,8.42-2.74,10.76-6.88c1.44,4.14,5.02,6.88,10.45,6.8c5.63-0.07,11.25-3.08,14.86-7.27c0.31,4.2,2.65,7.1,6.68,7.1
	c3.95,0,7.65-3.04,10.28-6.41c0,3.86,2.3,6.49,6.74,6.74c2.5,0.14,5.21-1.19,7.49-3.17c0.25,1.04,0.74,1.88,1.47,2.51
	c0.74,0.66,1.23,0.33,1.56-0.41c3.29-7.73,7.23-15.37,12.09-20.63c5.26-5.75,9.29-7.97,10.28-7.56c1.64,0.58-7.23,11.92-9.95,18.74
	c-2.38,5.92-1.23,9.13,0.16,10.36c0.74,0.82,1.4,0.58,1.89-0.41c3.45-7.73,7.48-15.62,14.3-22.44c5.34-5.34,8.14-6.25,8.8-6
	c1.23,0.41-6.08,9.62-9.13,16.44c-3.04,6.74-0.41,12.41,6.74,12.41c4.77,0,10.03-4.11,12.33-8.8
	C370.44,215.63,370.69,212.92,370.28,212.34z M270.39,207.74c3.86-7.81,10.69-12.74,12.41-11.35c1.15,0.9-0.66,5.18-3.29,8.63
	c-2.38,3.12-5.75,6.66-9.78,4.11C269.9,208.72,270.14,208.23,270.39,207.74z M249.85,156.88c0.99-1.73,1.89-3.21,2.8-4.69
	c3.86-6.33,8.96-10.44,10.93-9.45c2.06,0.99,1.15,7.81-2.06,14.39c-3.86,7.89-9.21,13.89-11.84,11.76
	C247.38,166.99,247.79,162.06,249.85,156.88z M217.87,147.84c5.67-10.52,11.76-19.65,12.82-18.99c1.07,0.66-3.54,13.81-14.8,22.94
	C216.47,150.47,217.13,149.15,217.87,147.84z M295.38,223.44c-3.21-0.08-2.14-7.32,2.22-14.39c4.52-7.32,10.52-12.66,13.15-12.41
	c2.38,0.25,1.64,5.34-3.54,14.39C303.03,218.26,298.75,223.52,295.38,223.44z"/>
<path class="st1" d="M156.61,218.45c-0.38-0.31-0.73-0.66-1.13-0.94c-0.44-0.31-0.93-0.5-1.4-0.75c-0.83-0.44-1.54-1.25-2.25-1.86
	c-1.58-1.35-3.34-2.53-4.84-3.97c-1.45-1.4-3.09-2.57-4.47-4.06c-0.68-0.74-1.28-1.54-1.92-2.3c-0.65-0.77-1.36-1.49-2.03-2.25
	c-1.24-1.42-2.27-3.09-3.29-4.67c-1.11-1.73-1.76-3.67-2.37-5.63c-0.31-1-0.6-2.02-0.77-3.05c-0.18-1.05-0.03-2.12,0.13-3.16
	c0.16-1.04,0.24-2.09,0.41-3.12c0.15-0.93,0.45-1.71,1.15-2.36c0.62-0.58,1.23-1.18,1.86-1.76c0.79-0.74,1.72-0.81,2.75-0.92
	c0.98-0.11,1.9-0.41,2.89-0.44c0.92-0.02,1.94-0.05,2.84,0.16c1.88,0.44,3.74,0.83,5.38,1.9c1.8,1.17,3.5,2.48,5.29,3.66
	c1.58,1.05,3.07,2.32,4.39,3.67c0.69,0.71,1.17,1.55,1.74,2.35c0.6,0.84,1.34,1.56,1.94,2.4c2.45,3.37,3.44,7.35,5,11.15
	c0.4,0.96,0.89,1.84,1.48,2.7c0.54,0.8,0.99,1.63,1.45,2.48c0.97,1.8,2.29,3.2,3.64,4.7c2.51,2.77,4.84,5.73,7.85,7.98
	c0.76,0.57,1.57,1.08,2.41,1.54c0.33,0.18,1.06,0.38,1.17-0.14c0.11-0.52-0.67-1.05-1.02-1.25c-3.24-1.78-5.58-4.76-7.99-7.48
	c-1.32-1.49-2.79-2.85-3.8-4.58c-0.51-0.89-0.94-1.8-1.51-2.65c-0.57-0.84-1.11-1.67-1.52-2.6c-0.85-1.96-1.5-4.03-2.24-6.03
	c-0.75-2.03-1.79-3.93-3.03-5.69c-0.62-0.88-1.38-1.65-2.02-2.51c-0.61-0.81-1.09-1.69-1.78-2.44c-0.71-0.77-1.48-1.45-2.27-2.13
	c-0.83-0.72-1.61-1.47-2.53-2.08c-1.81-1.21-3.52-2.54-5.35-3.71c-0.92-0.59-1.82-1.21-2.83-1.64c-1.01-0.43-2.08-0.67-3.14-0.92
	c-0.99-0.23-1.9-0.51-2.92-0.55c-1.03-0.04-2.08-0.12-3.11,0.04c-0.47,0.07-0.91,0.22-1.38,0.3c-0.56,0.09-1.13,0.1-1.69,0.2
	c-0.97,0.18-1.68,0.62-2.37,1.31c-0.64,0.64-1.38,1.21-1.98,1.89c-0.6,0.69-0.86,1.68-0.97,2.57c-0.13,1.05-0.26,2.1-0.41,3.15
	c-0.16,1.07-0.24,2.14-0.08,3.21c0.33,2.18,1.13,4.3,1.89,6.36c0.72,1.94,1.92,3.54,3.06,5.24c0.57,0.86,1.11,1.72,1.78,2.51
	c0.65,0.77,1.37,1.49,2.03,2.25c1.43,1.63,2.73,3.31,4.38,4.74c0.78,0.68,1.6,1.28,2.34,2.01c0.76,0.75,1.6,1.39,2.42,2.06
	c0.88,0.71,1.77,1.4,2.64,2.13c0.84,0.71,1.64,1.48,2.52,2.14c0.4,0.3,0.84,0.52,1.3,0.74c0.42,0.2,0.69,0.45,1.05,0.75
	c0.34,0.28,1.05,0.8,1.53,0.52C157.36,219.32,156.88,218.67,156.61,218.45L156.61,218.45z"/>
<path class="st1" d="M135.93,177.02c-0.08-0.94,0.86-1.72,1.47-2.31c0.62-0.59,1.52-0.83,2.2-1.38c1.3-1.07,2.24-2.75,4.05-2.96
	c2.06-0.24,4.06,0.65,6.13,0.44c2.23-0.23,4.4-1.47,5.86-3.17c0.65-0.76,0.87-1.57,1.13-2.51c0.28-1.02,0.64-2.04,0.74-3.1
	c0.05-0.51,0.06-1.05-0.11-1.53c-0.17-0.47-0.43-0.83-0.48-1.34c-0.08-0.78-0.03-1.87,0.56-2.47c0.28-0.28,0.63-0.3,1.01-0.35
	c0.53-0.07,1.12-0.23,1.66-0.21c0.41,0.01,0.79,0.2,1.17,0.33c0.54,0.17,1.1,0.29,1.61,0.56c0.93,0.48,1.86,0.89,2.81,1.33
	c0.97,0.45,1.82,1.26,2.65,1.92c2.04,1.62,3.85,3.57,5.77,5.34c1.92,1.78,3.92,3.3,6.2,4.6c0.5,0.29,1.2,0.27,1.74,0.09
	c0.29-0.1,0.92-0.5,0.4-0.79c-2.14-1.22-4.06-2.63-5.87-4.3c-1.84-1.69-3.59-3.5-5.48-5.13c-0.85-0.74-1.78-1.54-2.74-2.14
	c-0.93-0.59-2.02-0.87-2.98-1.41c-1.05-0.59-2.21-0.96-3.37-1.29c-1.22-0.34-2.37-0.16-3.6,0c-1.12,0.14-2.42,0.25-3.26,1.11
	c-0.64,0.66-0.82,1.6-0.83,2.48c-0.01,1.08,0.66,1.88,0.64,2.95c-0.02,1.19-0.45,2.31-0.75,3.44c-0.28,1.05-0.6,1.85-1.4,2.61
	c-0.81,0.76-1.83,1.56-2.93,1.84c-0.97,0.24-2.02-0.08-2.97-0.24c-1.16-0.19-2.35-0.26-3.51-0.13c-1.25,0.14-2.44,0.46-3.47,1.2
	c-0.85,0.62-1.5,1.45-2.27,2.15c-0.82,0.75-1.88,1.03-2.67,1.81c-0.73,0.72-1.72,1.62-1.63,2.75
	C133.48,177.96,135.99,177.8,135.93,177.02L135.93,177.02z"/>
<path class="st1" d="M175.65,214.59c-0.07,0.04-0.14,0.09-0.21,0.13c0.41,0.14,0.82,0.29,1.22,0.43c-0.05-0.04-0.09-0.08-0.14-0.12
	c-0.12-0.1,0.23,0.24,0.05,0.04c-0.04-0.04-0.07-0.08-0.11-0.12c-0.03-0.03-0.17-0.21-0.06-0.07c0.12,0.15-0.05-0.06-0.06-0.08
	c-0.03-0.04-0.07-0.09-0.1-0.13c-0.07-0.1-0.15-0.21-0.22-0.31c-0.3-0.43-0.62-0.86-0.9-1.3c-0.03-0.05-0.06-0.1-0.09-0.15
	c-0.05-0.08-0.09-0.16-0.02-0.03c-0.07-0.12-0.13-0.23-0.2-0.35c-0.15-0.27-0.3-0.54-0.49-0.78c-0.11-0.14-0.23-0.28-0.35-0.42
	c-0.13-0.15,0-0.02,0.04,0.05c-0.02-0.04-0.06-0.07-0.08-0.11c-0.01-0.02-0.14-0.2-0.04-0.05c0.04,0.07,0.05,0.08,0.02,0.03
	c-0.03-0.06-0.02-0.04,0.02,0.07c-0.02-0.02-0.02-0.1-0.03-0.13c0.02,0.13,0.01-0.03,0.01-0.08c0.08-0.53-0.52-1.08-0.93-1.32
	c-0.25-0.14-1.08-0.53-1.16,0.02c-0.11,0.75,0.36,1.37,0.81,1.91c0.04,0.05,0.09,0.11,0.13,0.16c0.14,0.16-0.12-0.18-0.04-0.05
	c0.03,0.05,0.07,0.09,0.1,0.13c0.02,0.03,0.15,0.25,0.04,0.06c0.18,0.32,0.36,0.65,0.56,0.97c0.31,0.5,0.66,0.97,1,1.44
	c0.42,0.6,0.89,1.19,1.47,1.65c0.2,0.16,0.43,0.3,0.67,0.39c0.14,0.05,0.41,0.13,0.55,0.04c0.07-0.04,0.14-0.09,0.21-0.13
	c0.45-0.27,0.06-0.87-0.2-1.14c-0.22-0.23-0.49-0.45-0.79-0.57C176.15,214.61,175.84,214.48,175.65,214.59L175.65,214.59z"/>
<path class="st1" d="M177.09,215.14c-0.29-0.34-0.74-0.51-1-0.87c-0.29-0.41-0.51-0.9-0.72-1.36c-0.21-0.48-0.39-0.98-0.65-1.43
	c-0.23-0.4-0.53-0.78-0.6-1.25c-0.02-0.16-0.26-0.23-0.38-0.27c-0.28-0.08-0.61-0.1-0.9-0.08c-0.29,0.02-0.61,0.04-0.89,0.15
	c-0.11,0.04-0.38,0.14-0.36,0.3c0.07,0.48,0.37,0.92,0.62,1.33c0.27,0.46,0.44,0.96,0.66,1.44c0.22,0.48,0.45,0.98,0.74,1.42
	c0.26,0.41,0.73,0.58,1.04,0.94c0.12,0.14,0.43,0.19,0.59,0.21c0.31,0.05,0.66,0.05,0.97,0
	C176.39,215.64,177.38,215.47,177.09,215.14L177.09,215.14z"/>
<path class="st1" d="M175.73,212.95c-0.43-1.28-1.19-2.38-1.78-3.59c-0.3-0.61-0.5-1.23-0.67-1.89c-0.18-0.68-0.52-1.3-0.76-1.96
	c-0.18-0.49-0.88-0.52-1.32-0.46c-0.24,0.03-1.36,0.27-1.19,0.74c0.24,0.66,0.58,1.28,0.76,1.96c0.18,0.67,0.39,1.33,0.68,1.96
	c0.56,1.19,1.36,2.26,1.77,3.51c0.16,0.49,0.89,0.52,1.32,0.46C174.79,213.65,175.89,213.42,175.73,212.95L175.73,212.95z"/>
<path class="st1" d="M182.93,215.46c-0.37-0.36-0.71-0.73-1.1-1.07c-0.42-0.37-0.85-0.65-1.35-0.91c-0.9-0.47-1.83-0.95-2.58-1.64
	c-0.38-0.34-1.05-0.38-1.53-0.36c-0.25,0.01-0.53,0.02-0.76,0.13c-0.09,0.05-0.28,0.17-0.14,0.29c0.8,0.73,1.73,1.27,2.68,1.77
	c0.43,0.22,0.85,0.44,1.22,0.75c0.4,0.34,0.75,0.73,1.13,1.1c0.36,0.35,1.06,0.38,1.53,0.36c0.25-0.01,0.54-0.02,0.76-0.13
	C182.88,215.71,183.06,215.58,182.93,215.46L182.93,215.46z"/>
<path class="st1" d="M180.45,214.13c-0.22-0.22-0.43-0.44-0.66-0.64c-0.22-0.2-0.47-0.37-0.69-0.57c-0.04-0.03-0.07-0.07-0.1-0.1
	c-0.17-0.16,0.14,0.18-0.01,0c-0.07-0.09-0.14-0.19-0.22-0.29c-0.21-0.27-0.43-0.54-0.66-0.79c-0.77-0.82-1.69-1.45-2.49-2.24
	c-0.42-0.42-1.28-0.51-1.78-0.19c-0.5,0.33-0.56,0.88-0.14,1.3c0.79,0.79,1.72,1.42,2.49,2.24c0.02,0.03,0.13,0.12,0.14,0.15
	c-0.02-0.03-0.05-0.06-0.07-0.09c0.03,0.03,0.05,0.06,0.08,0.09c0.08,0.1,0.16,0.2,0.24,0.31c0.19,0.25,0.38,0.5,0.61,0.71
	c0.21,0.19,0.45,0.35,0.66,0.54c0.24,0.22,0.46,0.44,0.69,0.67c0.42,0.42,1.28,0.51,1.78,0.19
	C180.83,215.1,180.88,214.56,180.45,214.13L180.45,214.13z"/>
<path class="st1" d="M179.42,212.56c-1.19-1.38-2.37-2.77-3.6-4.11c-0.24-0.26-0.5-0.5-0.78-0.73c-0.07-0.06-0.14-0.12-0.21-0.19
	c-0.05-0.05-0.05-0.05,0,0.01c-0.02-0.03-0.05-0.07-0.07-0.1c-0.09-0.15-0.16-0.31-0.24-0.47c-0.16-0.33-0.42-0.6-0.64-0.89
	c-0.26-0.34-0.54-0.68-0.86-0.96c-0.46-0.4-1.31-0.31-1.76,0.06c-0.44,0.36-0.63,0.96-0.14,1.37c0.24,0.21,0.37,0.38,0.58,0.67
	c0.23,0.29,0.46,0.56,0.62,0.9c0.33,0.71,0.98,1.1,1.5,1.65c1.16,1.24,2.24,2.54,3.35,3.82c0.41,0.47,1.1,0.58,1.66,0.3
	C179.24,213.69,179.85,213.05,179.42,212.56L179.42,212.56z"/>
<path class="st1" d="M182.1,215.76c-0.5-0.52-0.93-1.12-1.45-1.62c-0.53-0.51-1.1-0.97-1.64-1.47c-1.02-0.94-1.96-1.96-3.01-2.85
	c-1.07-0.9-1.82-2.04-2.6-3.18c-0.64-0.93-1.17-1.99-2.26-2.44c-0.46-0.19-1.18-0.49-1.69-0.38c-0.48,0.1,0.15,0.4,0.34,0.48
	c-0.21-0.09,0,0.05,0.04,0.12c0.07,0.1,0.16,0.2,0.23,0.3c0.15,0.21,0.28,0.43,0.42,0.65c0.31,0.48,0.65,0.94,0.96,1.42
	c0.68,1.07,1.58,2.03,2.55,2.84c0.99,0.83,1.86,1.8,2.81,2.68c0.51,0.47,1.05,0.91,1.55,1.4c0.5,0.48,0.9,1.05,1.38,1.55
	c0.35,0.36,0.97,0.5,1.44,0.6C181.25,215.85,182.29,215.96,182.1,215.76L182.1,215.76z"/>
<path class="st1" d="M175.57,211.46c-0.12-0.12-0.24-0.25-0.35-0.38c0.09,0.1,0.02,0.02-0.03-0.04c-0.05-0.07-0.1-0.14-0.15-0.2
	c-0.2-0.28-0.39-0.56-0.57-0.85c0.07,0.12,0.01,0.02-0.03-0.04c-0.05-0.07-0.09-0.15-0.14-0.22c-0.09-0.15-0.18-0.29-0.27-0.44
	c-0.2-0.33-0.4-0.67-0.58-1.02c-0.09-0.16-0.17-0.33-0.25-0.49c-0.04-0.08-0.08-0.16-0.12-0.25c-0.09-0.2,0.04,0.12-0.04-0.09
	c-0.13-0.33-0.23-0.67-0.36-1c-0.16-0.41-0.35-0.79-0.6-1.16c-0.08-0.12-0.16-0.24-0.24-0.35c-0.08-0.12,0.05,0.08,0.06,0.11
	c0.02,0.05,0.05,0.25,0.04,0.06c-0.04-0.56-0.56-1.2-1.04-1.45c-0.49-0.25-0.74,0.01-0.71,0.51c0.03,0.49,0.31,0.95,0.57,1.35
	c0.09,0.14,0.18,0.27,0.27,0.4c0.22,0.33-0.1-0.28,0.02,0.05c0.32,0.84,0.63,1.65,1.05,2.45c0.4,0.77,0.87,1.5,1.33,2.23
	c0.46,0.73,0.96,1.43,1.57,2.04c0.23,0.23,0.88,0.76,1.13,0.27C176.36,212.51,175.87,211.76,175.57,211.46L175.57,211.46z"/>
<path class="st1" d="M174.04,210.61c-0.31-0.35-0.53-0.77-0.72-1.2c-0.2-0.45-0.39-0.9-0.5-1.38c-0.11-0.5-0.34-0.93-0.52-1.4
	c-0.17-0.45-0.35-0.9-0.68-1.25c-0.12-0.12-0.38-0.21-0.52-0.28c-0.3-0.13-0.61-0.23-0.92-0.32c-0.24-0.07-0.49-0.15-0.74-0.17
	c-0.05,0-0.26-0.03-0.16,0.08c0.34,0.35,0.49,0.8,0.67,1.25c0.09,0.22,0.2,0.43,0.29,0.66c0.11,0.26,0.15,0.54,0.22,0.81
	c0.11,0.45,0.31,0.89,0.51,1.31c0.2,0.42,0.41,0.84,0.72,1.19c0.11,0.12,0.38,0.22,0.52,0.28c0.3,0.13,0.61,0.23,0.92,0.32
	c0.24,0.07,0.49,0.15,0.74,0.17C173.93,210.7,174.13,210.72,174.04,210.61L174.04,210.61z"/>
<path class="st1" d="M173.29,208.96c-0.26-0.72-0.58-1.43-0.89-2.13c-0.31-0.71-0.59-1.44-0.91-2.15c-0.25-0.56-0.44-1.09-0.53-1.69
	c-0.1-0.59-0.2-1.16-0.6-1.62c-0.37-0.42-1.22-0.44-1.71-0.32c-0.42,0.1-0.87,0.42-0.5,0.84c-0.05-0.06,0.01,0.01,0.02,0.04
	c0.03,0.05,0.05,0.1,0.08,0.16c0.05,0.11,0.09,0.23,0.12,0.35c0.06,0.23,0.08,0.47,0.12,0.7c0.11,0.66,0.34,1.25,0.61,1.86
	c0.3,0.67,0.56,1.36,0.85,2.03c0.31,0.71,0.62,1.41,0.89,2.13C171.13,209.95,173.62,209.88,173.29,208.96L173.29,208.96z"/>
<path class="st1" d="M174.46,207.17c-0.57-1.14-1.33-2.17-2.12-3.18c-0.22-0.28-0.47-0.55-0.72-0.81c-0.1-0.1-0.21-0.21-0.31-0.31
	c-0.05-0.05-0.09-0.09-0.14-0.14c-0.02-0.02-0.21-0.23-0.1-0.1c0.09,0.11-0.02-0.04-0.04-0.06c-0.04-0.06-0.07-0.11-0.11-0.17
	c-0.06-0.11-0.12-0.23-0.18-0.34c-0.06-0.1-0.12-0.19-0.2-0.29c-0.03-0.04-0.06-0.09-0.09-0.13c-0.1-0.14,0.03,0.08,0.04,0.15
	c-0.05-0.61-0.66-1.07-1.25-1.13c-0.48-0.05-1.27,0.15-1.21,0.8c0.03,0.39,0.19,0.7,0.42,1c0.15,0.2,0.25,0.42,0.37,0.63
	c0.33,0.56,0.88,1.02,1.33,1.48c0.12,0.12-0.1-0.14,0,0c0.05,0.07,0.1,0.13,0.15,0.2c0.09,0.12,0.18,0.24,0.27,0.37
	c0.19,0.25,0.38,0.5,0.57,0.76c0.18,0.24,0.35,0.48,0.51,0.73c0.09,0.14,0.18,0.28,0.26,0.42c0.03,0.06,0.07,0.12,0.1,0.17
	c0,0.01,0.15,0.29,0.07,0.12c0.28,0.56,0.87,0.96,1.52,0.89C174.07,208.18,174.75,207.75,174.46,207.17L174.46,207.17z"/>
<path class="st1" d="M171.14,203.81c-0.49-0.86-0.98-1.72-1.41-2.61c-0.13-0.26-0.34-0.52-0.56-0.71c-0.2-0.19-0.48-0.41-0.75-0.51
	c-0.13-0.05-0.39-0.15-0.5-0.01c-0.11,0.15-0.03,0.35,0.04,0.5c0.42,0.89,0.91,1.76,1.41,2.61c0.15,0.27,0.33,0.5,0.56,0.71
	c0.2,0.19,0.48,0.41,0.75,0.51c0.13,0.05,0.39,0.15,0.5,0.01C171.28,204.16,171.22,203.94,171.14,203.81L171.14,203.81z"/>
<path class="st1" d="M169.36,200.33c-0.07-0.33-0.13-0.67-0.2-1c-0.03-0.16-0.1-0.31-0.2-0.44c-0.08-0.15-0.2-0.27-0.34-0.37
	c-0.13-0.1-0.27-0.17-0.42-0.21c-0.14-0.06-0.29-0.08-0.44-0.06c-0.09,0.02-0.18,0.04-0.28,0.07c-0.18,0.07-0.33,0.2-0.43,0.36
	c-0.04,0.09-0.08,0.17-0.11,0.26c-0.05,0.2-0.05,0.39,0,0.59c0.07,0.33,0.13,0.67,0.2,1c0.03,0.16,0.1,0.31,0.2,0.44
	c0.08,0.15,0.2,0.27,0.34,0.37c0.13,0.1,0.27,0.17,0.42,0.21c0.14,0.06,0.29,0.08,0.44,0.06c0.09-0.02,0.18-0.04,0.28-0.07
	c0.18-0.07,0.33-0.2,0.43-0.36c0.04-0.09,0.08-0.17,0.11-0.26C169.41,200.72,169.41,200.52,169.36,200.33L169.36,200.33z"/>
<path class="st1" d="M170.7,161.41c-0.17-0.16-0.32-0.33-0.47-0.5c-0.08-0.09-0.15-0.17-0.22-0.26c-0.03-0.04-0.06-0.07-0.09-0.11
	c0.2,0.24,0.04,0.05,0,0c-0.32-0.39-0.63-0.79-1.01-1.12c-0.29-0.26-0.56-0.54-0.81-0.84c-0.11-0.13,0.14,0.18,0.07,0.08
	c-0.02-0.03-0.05-0.06-0.07-0.1c-0.05-0.07-0.09-0.13-0.14-0.2c-0.04-0.07-0.08-0.14-0.12-0.2c-0.09-0.17,0.03,0.03,0.02,0.04
	c0.01-0.01-0.07-0.16-0.08-0.17c-0.24-0.54-0.83-0.94-1.42-1.02c-0.22-0.03-0.53-0.06-0.71,0.11c-0.15,0.14-0.23,0.34-0.14,0.54
	c0.38,0.83,0.93,1.56,1.61,2.17c0.16,0.14,0.33,0.28,0.47,0.44c0.08,0.09,0.16,0.19,0.24,0.28c0.02,0.03,0.15,0.19,0.04,0.05
	c-0.12-0.14,0.03,0.04,0.04,0.05c0.35,0.43,0.69,0.86,1.09,1.24c0.23,0.23,0.52,0.41,0.83,0.51c0.23,0.08,0.58,0.15,0.82,0.06
	c0.19-0.07,0.37-0.2,0.36-0.42C171.02,161.81,170.87,161.57,170.7,161.41L170.7,161.41z"/>
<path class="st1" d="M170.39,161.07c-0.11-0.09-0.22-0.18-0.33-0.26c0.08,0.06,0.15,0.12,0.23,0.19c-0.33-0.27-0.65-0.54-0.95-0.84
	c-0.25-0.24-0.53-0.46-0.74-0.75c0.06,0.08,0.11,0.17,0.17,0.25c-0.11-0.17-0.18-0.36-0.26-0.54c-0.07-0.16-0.18-0.31-0.28-0.45
	c-0.12-0.16-0.28-0.28-0.44-0.41c-0.22-0.18-0.65-0.19-0.91-0.14c-0.3,0.06-0.65,0.27-0.83,0.53c-0.17,0.25-0.29,0.56-0.23,0.86
	c0.03,0.1,0.06,0.19,0.09,0.29c0.09,0.19,0.23,0.33,0.4,0.44c0.01,0.01,0.03,0.02,0.04,0.03c-0.08-0.06-0.15-0.12-0.23-0.19
	c0.07,0.06,0.12,0.12,0.17,0.19c-0.06-0.08-0.11-0.17-0.17-0.25c0.15,0.22,0.21,0.48,0.35,0.7c0.21,0.33,0.45,0.58,0.73,0.85
	c0.24,0.22,0.46,0.45,0.71,0.66c0.33,0.29,0.67,0.56,1.01,0.83c0.22,0.17,0.65,0.19,0.91,0.14c0.3-0.06,0.65-0.27,0.83-0.53
	c0.17-0.25,0.29-0.56,0.23-0.86c-0.03-0.1-0.06-0.19-0.09-0.29C170.7,161.32,170.56,161.17,170.39,161.07L170.39,161.07z"/>
<path class="st1" d="M169.68,160.44c-0.55-0.96-1.28-1.92-2.23-2.52c-1.09-0.68-2.17-1.4-3.32-1.98c-0.28-0.14-0.65-0.21-0.95-0.2
	c-0.24,0-0.59,0.05-0.79,0.2c-0.45,0.37-0.07,0.78,0.32,0.98c0.25,0.13,0.49,0.26,0.73,0.4c-0.18-0.11,0.01,0,0.04,0.03
	c0.07,0.04,0.13,0.08,0.2,0.12c0.12,0.07,0.24,0.15,0.36,0.22c0.48,0.3,0.97,0.6,1.45,0.9c0.19,0.11,0.36,0.25,0.53,0.39
	c0.07,0.06,0.06,0.05,0-0.01c0.05,0.05,0.1,0.09,0.14,0.14c0.09,0.09,0.17,0.18,0.25,0.27c0.17,0.19,0.33,0.39,0.48,0.6
	c0.07,0.09,0.13,0.19,0.2,0.29c0.03,0.04,0.05,0.08,0.08,0.13c0.01,0.01,0.13,0.22,0.04,0.07c0.28,0.5,0.92,0.7,1.47,0.68
	c0.26-0.01,0.58-0.03,0.79-0.2C169.62,160.83,169.79,160.63,169.68,160.44L169.68,160.44z"/>
<path class="st1" d="M174.95,162.75c-0.59-0.6-1.14-1.24-1.75-1.82c-0.79-0.76-1.67-1.41-2.63-1.93c-0.9-0.49-1.81-0.96-2.77-1.34
	c-0.19-0.08-0.39-0.15-0.58-0.23c0.03,0.01,0.15,0.08,0.02,0.01c-0.16-0.08-0.31-0.18-0.47-0.27c-0.5-0.28-1.02-0.52-1.59-0.63
	c-0.53-0.11,0.06,0.5,0.17,0.59c0.43,0.35,0.98,0.7,1.53,0.81c0.1,0.02,0.07,0.01-0.09-0.05c0.14,0.08,0.16,0.09,0.07,0.03
	c0.22,0.12,0.42,0.25,0.64,0.37c0.38,0.2,0.77,0.35,1.17,0.51c0.7,0.28,1.36,0.62,2.02,0.97c0.07,0.04,0.14,0.07,0.2,0.11
	c-0.1-0.06-0.09-0.05,0.05,0.03c-0.15-0.11,0.1,0.08,0.11,0.09c0.24,0.2,0.46,0.41,0.68,0.63c0.5,0.5,0.96,1.04,1.46,1.54
	c0.41,0.41,0.97,0.76,1.52,0.94c0.1,0.03,0.35,0.13,0.43,0.01C175.22,163,175,162.8,174.95,162.75L174.95,162.75z"/>
<path class="st1" d="M175.03,162.12c-0.19-0.97-0.94-1.63-1.53-2.36c-0.35-0.43-0.7-0.89-1.18-1.2c-0.45-0.29-0.96-0.39-1.43-0.63
	c-0.99-0.52-1.91-1.08-3.01-1.36c-0.28-0.07-0.56-0.13-0.83-0.18c0.18,0.04,0.09,0.03-0.03-0.01c-0.09-0.03-0.19-0.06-0.28-0.09
	c-0.5-0.16-1.02-0.33-1.56-0.25c-1.55,0.21-0.91,2.6,0.52,2.4c0.2-0.03-0.12-0.04,0.03,0c0.07,0.02,0.15,0.03,0.22,0.04
	c0.2,0.05-0.25-0.09,0.11,0.03c0.07,0.03,0.15,0.05,0.23,0.07c0.43,0.14,0.86,0.22,1.29,0.33c0.84,0.2,1.62,0.68,2.37,1.1
	c0.35,0.19,0.69,0.32,1.06,0.46c0.05,0.02,0.27,0.1,0.13,0.04c0.03,0.01,0.17,0.12,0.07,0.04c0.16,0.14,0.29,0.33,0.43,0.49
	c0.23,0.28,0.46,0.55,0.7,0.82c0.12,0.14,0.24,0.29,0.35,0.44c-0.11-0.15-0.02,0.01,0,0.01c0.05,0.12,0.06,0.13,0.03,0.04
	c-0.03-0.09-0.03-0.07,0,0.04c0.12,0.63,0.77,1.15,1.42,1.07C174.79,163.38,175.15,162.74,175.03,162.12L175.03,162.12z"/>
<path class="st1" d="M176.63,162.87c-0.11-0.13-0.2-0.28-0.29-0.42c-0.15-0.22-0.34-0.42-0.55-0.59c-0.33-0.26-0.65-0.54-0.99-0.79
	c-0.69-0.52-1.35-1.07-2-1.64c-0.24-0.21-0.58-0.36-0.9-0.39c-0.24-0.02-0.59,0.02-0.78,0.2c-0.45,0.44-0.19,1.06,0.22,1.43
	c0.63,0.55,1.28,1.09,1.95,1.6c0.32,0.24,0.62,0.5,0.94,0.75c0.02,0.01,0.2,0.19,0.23,0.18c-0.03,0.01-0.22-0.26-0.09-0.08
	c0.02,0.03,0.04,0.06,0.06,0.09c0.1,0.15,0.19,0.3,0.31,0.44c0.21,0.25,0.49,0.45,0.81,0.55c0.25,0.08,0.62,0.11,0.87-0.01
	c0.23-0.11,0.43-0.3,0.46-0.56C176.89,163.36,176.8,163.08,176.63,162.87L176.63,162.87z"/>
<path class="st1" d="M171.96,159.5c-0.65-0.56-1.32-1.1-2.02-1.58c-0.7-0.48-1.46-0.86-2.2-1.27c-0.72-0.4-1.45-0.73-2.27-0.87
	c-0.92-0.16-1.9-0.08-2.83-0.08c-0.26,0,0.37,0.74,0.43,0.81c0.21,0.25,0.43,0.49,0.67,0.7c0.11,0.1,0.33,0.35,0.48,0.35
	c0.88,0,1.81-0.07,2.68,0.05c0.77,0.11,1.49,0.39,2.17,0.77c0.68,0.38,1.37,0.71,2.01,1.14c0.67,0.44,1.28,0.95,1.89,1.47
	c0.01,0,0.28,0.24,0.35,0.18c0.07-0.06-0.15-0.36-0.15-0.36C172.84,160.32,172.41,159.89,171.96,159.5L171.96,159.5z"/>
<path class="st1" d="M168.86,158.9c-0.24-0.24-0.49-0.45-0.78-0.63c-0.28-0.17-0.58-0.31-0.88-0.44c0.02,0.01,0.04,0.02,0.05,0.02
	c-0.14-0.07-0.26-0.15-0.35-0.27c-0.09-0.11-0.17-0.23-0.28-0.33c-0.21-0.18-0.49-0.26-0.57-0.56c-0.02-0.07-0.4,0-0.38,0
	c-0.29,0.05-0.59,0.12-0.87,0.2c-0.29,0.08-0.57,0.17-0.85,0.29c-0.05,0.02-0.35,0.12-0.33,0.2c0.08,0.33,0.43,0.41,0.64,0.63
	c0.11,0.11,0.19,0.25,0.3,0.36c0.14,0.13,0.31,0.2,0.48,0.27c-0.02-0.01-0.04-0.02-0.05-0.02c0.54,0.25,1.02,0.55,1.44,0.98
	c0.07,0.07,0.33,0.01,0.38,0c0.29-0.05,0.59-0.12,0.87-0.2c0.29-0.08,0.57-0.17,0.85-0.29C168.57,159.08,168.9,158.94,168.86,158.9
	L168.86,158.9z"/>
<path class="st1" d="M168.5,158.96c-0.15-0.18-0.33-0.34-0.53-0.46c-0.17-0.1-0.33-0.19-0.48-0.32c0.04,0.04,0.09,0.08,0.13,0.12
	c-0.21-0.2-0.39-0.43-0.6-0.63c-0.19-0.17-0.4-0.33-0.6-0.48c-0.42-0.31-0.86-0.61-1.26-0.96c-0.15-0.13-0.54-0.05-0.7-0.01
	c-0.3,0.08-0.63,0.27-0.85,0.47c-0.19,0.17-0.42,0.4-0.47,0.66c-0.01,0.07-0.01,0.13-0.02,0.2c0.01,0.13,0.08,0.23,0.19,0.29
	c0.59,0.52,1.27,0.92,1.86,1.44c-0.04-0.04-0.09-0.08-0.13-0.12c0.24,0.23,0.42,0.49,0.69,0.7c0.21,0.16,0.46,0.27,0.66,0.44
	c-0.04-0.04-0.09-0.08-0.13-0.12c0.05,0.05,0.1,0.1,0.14,0.15c0.34,0.41,1.07,0.1,1.41-0.14c0.25-0.17,0.51-0.38,0.65-0.65
	C168.53,159.38,168.64,159.13,168.5,158.96L168.5,158.96z"/>
<path class="st1" d="M168.76,159.06c-0.29-0.37-0.67-0.65-1.06-0.91c-0.43-0.29-0.86-0.58-1.34-0.81c-0.89-0.42-1.79-0.8-2.67-1.23
	c-0.28-0.14-0.66-0.18-0.97-0.14c-0.26,0.04-0.6,0.16-0.77,0.36c-0.39,0.47-0.1,0.98,0.39,1.22c0.83,0.41,1.68,0.77,2.52,1.16
	c0.2,0.09,0.39,0.19,0.58,0.29c0.13,0.07-0.16-0.12-0.04-0.02c0.04,0.03,0.09,0.06,0.13,0.09c0.07,0.05,0.15,0.11,0.22,0.16
	c0.16,0.11,0.32,0.22,0.48,0.33c0.08,0.06,0.15,0.13,0.22,0.18c0.11,0.08-0.12-0.14-0.04-0.04c0.03,0.04,0.07,0.08,0.1,0.13
	c0.37,0.48,1.16,0.62,1.71,0.4C168.72,160.05,169.14,159.56,168.76,159.06L168.76,159.06z"/>
<path class="st1" d="M166.42,156.1c-0.85-0.66-1.79-1.09-2.88-1.09c-0.15,0,0.1,0.02-0.04,0c-0.05-0.01-0.11-0.02-0.16-0.03
	c-0.11-0.03-0.22-0.06-0.34-0.09c-0.3-0.08-0.61-0.08-0.92-0.04c-0.27,0.04-0.53,0.14-0.8,0.18c0.11-0.02,0.1-0.01,0-0.02
	c-0.07,0-0.13,0-0.2,0c-0.17,0-0.33-0.01-0.5-0.01c-0.55,0-1.27,0.39-1.56,0.86c-0.1,0.16-0.22,0.37-0.11,0.56
	c0.1,0.19,0.35,0.21,0.54,0.21c0.57,0,1.1-0.01,1.66-0.16c0.05-0.01,0.11-0.02,0.16-0.04c-0.16,0.05-0.05-0.03-0.02,0.01
	c-0.02-0.02-0.12-0.02,0,0.01c0.05,0.01,0.1,0.02,0.15,0.03c0.25,0.06,0.48,0.12,0.75,0.14c0.09,0.01,0.17,0.01,0.26,0.01
	c0.02,0,0.19,0,0.1,0c-0.08-0.01,0.08,0.01,0.1,0.01c0.06,0.01,0.11,0.02,0.17,0.03c0.21,0.04,0.39,0.1,0.52,0.15
	c0.42,0.19,0.8,0.45,1.16,0.73c0.17,0.13,0.51,0.08,0.69,0.05c0.3-0.07,0.64-0.22,0.88-0.41
	C166.3,156.98,166.86,156.44,166.42,156.1L166.42,156.1z"/>
<path class="st1" d="M165.35,155.95c-0.72-0.56-1.38-1.1-2.32-1.19c-0.88-0.08-1.62,0.32-2.47,0.34c-0.75,0.01-1.48-0.22-2.22-0.15
	c-0.83,0.07-1.45,0.48-2.04,1.05c-0.57,0.56-1.17,1.22-1.51,1.96c-0.3,0.65-0.26,1.36-0.29,2.06c-0.02,0.43-0.01,0.84,0.08,1.27
	c0.07,0.34,0.18,0.67,0.17,1.02c-0.01,0.37-0.2,0.7-0.22,1.07c-0.03,0.45,0.23,0.85,0.2,1.3c-0.11,1.43-1.21,2.9-2.35,3.68
	c-1.3,0.9-3.06,1.15-4.61,1.19c-0.39,0.01-0.7,0.06-0.93-0.04c-0.45-0.2-0.91-0.34-1.4-0.36c-0.83-0.04-1.65-0.29-2.49-0.17
	c-0.9,0.13-1.71,0.56-2.51,0.98c-0.7,0.36-1.5,0.78-2.02,1.38c-0.28,0.32-0.41,0.73-0.68,1.05c-0.24,0.28-0.58,0.44-0.85,0.68
	c-0.33,0.3-0.58,0.67-0.92,0.96c-0.36,0.32-0.73,0.62-1.06,0.97c-0.33,0.35-0.63,0.72-0.97,1.07c-0.3,0.3-0.66,0.54-0.94,0.86
	c-0.63,0.71-0.78,1.67-0.98,2.56c-0.21,0.93,2.3,1.16,2.52,0.13c0.15-0.66,0.24-1.44,0.72-1.97c0.22-0.24,0.51-0.42,0.74-0.65
	c0.34-0.34,0.64-0.71,0.97-1.06c0.48-0.52,1.07-0.92,1.55-1.44c0.22-0.24,0.4-0.49,0.65-0.69c0.32-0.26,0.64-0.46,0.89-0.79
	c0.21-0.27,0.33-0.59,0.53-0.85c0.18-0.23,0.45-0.41,0.69-0.57c0.67-0.44,1.43-0.82,2.17-1.11c0.22-0.09,0.2-0.05,0.51,0.02
	c0.4,0.09,0.77,0.12,1.18,0.13c0.27,0.01,0.52,0.18,0.87,0.28c0.54,0.15,1.06,0.14,1.61,0.13c3.16-0.06,6.59-0.73,8.52-3.49
	c0.37-0.53,0.66-1.13,0.86-1.75c0.1-0.32,0.21-0.65,0.24-0.99c0.03-0.41-0.14-0.73-0.19-1.12c-0.04-0.29,0.08-0.53,0.15-0.8
	c0.09-0.39,0.06-0.76-0.01-1.15c-0.16-0.83-0.17-1.58-0.14-2.42c0.03-0.72,0.32-1.23,0.77-1.78c0.14-0.18,0.3-0.34,0.46-0.5
	c0.09-0.09,0.64-0.5,0.64-0.6c0-0.02,0.07-0.02,0.06-0.04c0.01,0.02-0.6-0.02,0.06,0.09c0.88,0.15,1.83,0.18,2.71,0.03
	c0.08-0.01,1.14-0.21,1.16-0.29c-0.1-0.01-0.21-0.01-0.31-0.02c0.11,0.07,0.21,0.14,0.32,0.22c0.2,0.15,0.4,0.32,0.6,0.48
	c0.45,0.35,1.3,0.36,1.78,0.09C165.79,156.73,165.78,156.28,165.35,155.95L165.35,155.95z"/>
<path class="st1" d="M133.48,176.63c-0.33,0-0.61,0.06-0.79,0.35c-0.19,0.3-0.31,0.64-0.51,0.95c-0.47,0.72-1.15,1.46-1.13,2.38
	c0.01,0.17,0.13,0.41,0.2,0.55c0.14,0.29,0.29,0.58,0.46,0.86c0.13,0.21,0.26,0.44,0.43,0.62c0.03,0.03,0.17,0.2,0.17,0.05
	c0-0.16,0.01-0.31,0.05-0.46c-0.01,0.02-0.01,0.04-0.02,0.06c0.21-0.79,0.79-1.38,1.19-2.07c0.15-0.26,0.24-0.56,0.42-0.8
	c0.18-0.24,0.46-0.29,0.75-0.28c0.07,0-0.1-0.43-0.08-0.38c-0.11-0.27-0.25-0.55-0.4-0.8c-0.15-0.26-0.3-0.52-0.48-0.76
	C133.7,176.81,133.59,176.63,133.48,176.63L133.48,176.63z"/>
<path class="st1" d="M132.76,177.98c-0.23,0.37-0.5,0.7-0.8,1c-0.01,0.06,0.01,0.11,0.05,0.14c0.05,0.08,0.12,0.14,0.2,0.19
	c0.11,0.08,0.22,0.16,0.34,0.23c0.14,0.09,0.28,0.16,0.43,0.23c0.27,0.13,0.55,0.25,0.84,0.31c0.13,0.03,0.31,0.09,0.42-0.02
	c0.31-0.3,0.58-0.64,0.8-1c0.01-0.06-0.01-0.11-0.05-0.14c-0.05-0.08-0.12-0.14-0.2-0.19c-0.11-0.08-0.22-0.16-0.34-0.23
	c-0.14-0.09-0.28-0.16-0.43-0.23c-0.27-0.13-0.55-0.25-0.84-0.31c-0.07-0.01-0.13-0.02-0.2-0.03
	C132.89,177.91,132.82,177.93,132.76,177.98L132.76,177.98z"/>
<path class="st1" d="M167.84,197.21c0.47,0,1.25-0.2,1.27-0.79c0.02-0.58-0.81-0.82-1.25-0.82c-0.47,0-1.25,0.2-1.27,0.79
	C166.57,196.98,167.4,197.21,167.84,197.21L167.84,197.21z"/>
<path class="st1" d="M167,197.52c0.27,0.7,0.62,1.36,1,2.01c0.09,0.15,0.38,0.1,0.5,0.08c0.28-0.06,0.59-0.22,0.82-0.38
	c0.24-0.17,0.5-0.37,0.66-0.62c0.09-0.14,0.21-0.33,0.11-0.49c-0.38-0.65-0.73-1.31-1-2.01c-0.06-0.16-0.41-0.1-0.5-0.08
	c-0.28,0.06-0.59,0.22-0.82,0.38c-0.24,0.17-0.5,0.37-0.66,0.62C167.02,197.18,166.93,197.34,167,197.52L167,197.52z"/>
<path class="st1" d="M167.92,197.09c0.88,2.33,2.05,4.54,3.47,6.59c0-0.01,0.21,0.31,0.28,0.27c0.07-0.04-0.08-0.39-0.08-0.38
	c-0.22-0.55-0.52-1.08-0.86-1.56c-0.07-0.1-0.07-0.1-0.01-0.01c-0.03-0.05-0.07-0.1-0.1-0.15c-0.06-0.09-0.12-0.18-0.17-0.26
	c-0.06-0.09-0.11-0.17-0.17-0.26c0.16,0.27-0.04-0.07-0.07-0.12c-0.04-0.07-0.09-0.16-0.13-0.23c0.21,0.31-0.01-0.02-0.05-0.09
	c-0.04-0.08-0.08-0.15-0.13-0.23c-0.07-0.12-0.06-0.1,0.03,0.06c-0.03-0.05-0.05-0.1-0.08-0.16c-0.05-0.09-0.09-0.18-0.14-0.27
	c-0.02-0.04-0.04-0.08-0.06-0.12c0.07,0.14,0.07,0.15,0.02,0.04c-0.09-0.19-0.17-0.37-0.26-0.56c-0.02-0.05-0.05-0.11-0.07-0.16
	c0.04,0.1,0.04,0.1,0-0.01c-0.03-0.08-0.07-0.16-0.1-0.25c-0.09-0.22-0.18-0.44-0.26-0.67c-0.21-0.55-0.51-1.09-0.86-1.56
	c-0.04-0.05-0.2-0.31-0.28-0.27C167.77,196.75,167.91,197.07,167.92,197.09L167.92,197.09z"/>
<path class="st1" d="M167.59,198.31c0.86,1.48,1.38,3.12,2.19,4.62c0.43,0.79,0.85,1.57,1.28,2.36c0.42,0.77,0.78,1.59,1.35,2.26
	c0.2,0.24,1,0.11,1.27,0.09c0.3-0.02,0.6-0.05,0.89-0.11c0.03-0.01,0.4-0.1,0.36-0.15c-0.57-0.67-0.93-1.49-1.35-2.26
	c-0.43-0.79-0.85-1.57-1.28-2.36c-0.81-1.5-1.33-3.14-2.19-4.62c-0.14-0.24-1.04-0.1-1.27-0.09
	C168.75,198.05,167.54,198.22,167.59,198.31L167.59,198.31z"/>
<path class="st1" d="M169.1,198.24c0.06-0.78-0.35-1.54-0.69-2.22c-0.36-0.7-0.77-1.51-1.24-2.23c-0.51-0.79-1-1.58-1.57-2.34
	c-0.52-0.69-0.93-1.45-1.45-2.14c-0.26-0.35-0.5-0.71-0.8-1.03c-0.28-0.29-0.62-0.48-0.91-0.74c-0.7-0.61-1.32-1.33-2.02-1.95
	c-0.65-0.58-1.33-1.12-2-1.67c-0.58-0.47-1.15-1.04-1.88-1.27c-0.3-0.09-0.03,0.62-0.01,0.67c0.18,0.47,0.44,0.95,0.78,1.32
	c0.51,0.55,1.12,0.94,1.73,1.37c0.69,0.49,1.29,1.08,1.89,1.68c0.59,0.59,1.18,1.18,1.73,1.82c0.53,0.62,0.89,1.34,1.37,1.99
	c0.12,0.16,0.25,0.34,0.4,0.47c0.38,0.34-0.16-0.46-0.02-0.13c0.18,0.43,0.44,0.85,0.7,1.24c0.35,0.53,0.72,1.59,1.35,2.17
	c0.49,0.46-0.31-0.92-0.21-0.47c0.04,0.17,0.11,0.34,0.17,0.5c0.13,0.39,0.29,0.76,0.45,1.14c0.36,0.85,0.75,1.68,1.06,2.55
	c0.16,0.43,0.49,1.25,0.92,1.46c0.43,0.21,0.23-0.34,0.14-0.59c-0.34-0.94-0.76-1.84-1.15-2.76c-0.34-0.8-0.55-1.64-0.97-2.4
	c-0.16-0.28-0.34-0.56-0.54-0.81c-0.07-0.09-0.14-0.17-0.21-0.25c-0.18-0.2-0.19-0.18-0.03,0.06c0.14,0.26,0.15,0.26,0.03,0.02
	c-0.05-0.12-0.11-0.24-0.17-0.36c-0.13-0.26-0.26-0.51-0.42-0.76c-0.46-0.76-0.86-1.62-1.52-2.32c-0.44-0.46,0.11,0.31-0.1-0.1
	c-0.13-0.24-0.28-0.47-0.43-0.7c-0.25-0.38-0.52-0.76-0.81-1.11c-0.57-0.72-1.19-1.39-1.83-2.04c-0.65-0.66-1.29-1.33-2.01-1.92
	c-0.64-0.53-1.44-0.91-2.01-1.53c0.25,0.66,0.51,1.33,0.76,1.99c0.59,0.18,1.04,0.61,1.5,1c0.51,0.42,1.03,0.82,1.53,1.25
	c0.56,0.49,1.12,0.98,1.65,1.51c0.27,0.27,0.53,0.56,0.81,0.82c0.24,0.22,0.53,0.38,0.76,0.6c0.45,0.41,0.77,1.02,1.09,1.54
	c0.38,0.61,0.82,1.17,1.24,1.75c0.41,0.56,0.8,1.17,1.14,1.77c0.17,0.3,0.51,0.93,0.5,1.07c-0.04,0.5,0.31,1.06,0.57,1.46
	C168.41,197.72,169.08,198.56,169.1,198.24L169.1,198.24z"/>
<path class="st1" d="M167.72,194.02c-0.01-0.01-0.02-0.03-0.03-0.04c0.04,0.05,0.09,0.1,0.13,0.15c-0.42-0.51-0.59-1.17-0.94-1.72
	c-0.43-0.67-0.99-1.26-1.57-1.81c-0.18-0.17-0.53-0.25-0.77-0.28c-0.3-0.03-0.68-0.01-0.97,0.1c-0.41,0.16-0.84,0.52-0.42,0.92
	c0.28,0.27,0.55,0.55,0.81,0.84c-0.04-0.05-0.09-0.1-0.13-0.15c0.36,0.41,0.68,0.85,0.92,1.34c0.11,0.22,0.2,0.45,0.32,0.67
	c0.14,0.27,0.3,0.49,0.5,0.72c0.15,0.18,0.56,0.25,0.77,0.28c0.3,0.03,0.68,0.01,0.97-0.1c0.2-0.08,0.49-0.2,0.56-0.42
	C167.94,194.32,167.86,194.19,167.72,194.02L167.72,194.02z"/>
<path class="st1" d="M164.45,189.73c-0.17-0.3-0.34-0.6-0.54-0.89c-0.3-0.44-0.66-0.81-1.08-1.13c-0.14-0.1-0.29-0.18-0.44-0.24
	c-0.14-0.07-0.3-0.11-0.46-0.14c-0.13-0.03-0.27-0.03-0.4,0c-0.11,0.01-0.22,0.04-0.31,0.11c-0.04,0.05-0.08,0.1-0.12,0.15
	c-0.06,0.13-0.06,0.26-0.01,0.4c0.1,0.26,0.31,0.46,0.53,0.63c0.03,0.02,0.05,0.04,0.08,0.06c-0.08-0.07-0.16-0.13-0.24-0.2
	c0.13,0.11,0.25,0.23,0.36,0.37c-0.06-0.07-0.12-0.14-0.18-0.21c0.3,0.36,0.52,0.77,0.76,1.18c0.08,0.12,0.18,0.23,0.3,0.31
	c0.12,0.11,0.26,0.2,0.41,0.27c0.15,0.08,0.3,0.13,0.46,0.16c0.14,0.04,0.28,0.06,0.43,0.05c0.2-0.02,0.47-0.07,0.55-0.28
	C164.65,190.12,164.56,189.93,164.45,189.73L164.45,189.73z"/>
<path class="st1" d="M130.29,183.22c-0.23,2.39-0.29,4.83-0.14,7.23c0.16,2.45,0.74,4.92,1.46,7.26c0.08,0.25,2.35-0.72,2.18-1.28
	c-0.69-2.27-1.26-4.65-1.45-7.02c-0.19-2.41-0.11-4.88,0.12-7.28c0.04-0.36-0.83,0.08-0.94,0.13
	C131.25,182.4,130.33,182.82,130.29,183.22L130.29,183.22z"/>
<path class="st1" d="M131.68,195.87c-0.21,0.26-0.11,0.6-0.03,0.89c0.13,0.44,0.22,0.89,0.35,1.32c0.33,1.13,0.88,2.21,1.4,3.27
	c1.06,2.16,2.27,4.25,3.75,6.15c0.23,0.29,0.98,0.12,1.29,0.07c0.08-0.01,1.33-0.32,1.2-0.49c-1.43-1.85-2.62-3.87-3.66-5.97
	c-0.49-1-1.01-2.02-1.37-3.08c-0.16-0.46-0.24-0.94-0.37-1.41c-0.08-0.27-0.33-0.77-0.12-1.02c0.23-0.28-0.86-0.2-0.93-0.19
	C132.78,195.46,131.97,195.52,131.68,195.87L131.68,195.87z"/>
<path class="st1" d="M132.41,197.73c1.08,1.56,2.21,3.1,3.26,4.68c0.48,0.72,0.96,1.44,1.52,2.11c0.6,0.72,1.26,1.38,1.85,2.11
	c0.36,0.45,0.81,0.83,1.27,1.17c0.1,0.07,0.77,0.53,0.47,0.15c-0.57-0.71-1.22-1.36-1.81-2.06c-0.59-0.7-1.09-1.46-1.6-2.22
	c-1.05-1.56-2.16-3.08-3.23-4.62c-0.32-0.46-0.83-0.84-1.27-1.17C132.77,197.8,132.13,197.34,132.41,197.73L132.41,197.73z"/>
<path class="st1" d="M139.87,205.41c-0.74-1.3-1.63-2.51-2.53-3.69c-0.42-0.54-0.89-1.03-1.29-1.59c-0.45-0.63-0.88-1.2-1.52-1.66
	c-0.45-0.32-0.99,0.01-1.03,0.52c-0.05,0.65,0.29,1.23,0.8,1.59c-0.09-0.07-0.04-0.03,0.01,0.02c0.05,0.04,0.09,0.09,0.14,0.14
	c-0.19-0.17-0.03-0.03,0.01,0.02c0.04,0.05,0.08,0.1,0.11,0.15c0.17,0.23,0.32,0.47,0.5,0.7c0.39,0.52,0.84,0.99,1.23,1.5
	c0.38,0.51,0.76,1.02,1.13,1.53c0.19,0.26,0.37,0.53,0.55,0.8c0.04,0.06,0.08,0.13,0.13,0.19c0.02,0.03,0.18,0.29,0.1,0.15
	c-0.08-0.12,0.05,0.08,0.06,0.1c0.05,0.08,0.1,0.17,0.15,0.25c0.23,0.41,0.75,1.03,1.3,0.76
	C140.23,206.65,140.1,205.81,139.87,205.41L139.87,205.41z"/>
<path class="st1" d="M136.34,200.94c-1.02-2.15-1.88-4.38-2.65-6.63c-0.2-0.59-1.06-0.88-1.62-0.72c-0.61,0.18-0.94,0.68-0.73,1.3
	c0.77,2.25,1.63,4.48,2.65,6.63c0.27,0.57,1.01,0.89,1.62,0.72C136.16,202.08,136.62,201.54,136.34,200.94L136.34,200.94z"/>
<path class="st1" d="M132.94,198.17c-0.21-2.67-1.13-5.27-1.14-7.95c0-0.46-0.53-1.01-0.81-1.34c-0.07-0.08-0.8-0.8-0.8-0.5
	c0,2.69,0.93,5.29,1.14,7.95c0.04,0.48,0.51,0.99,0.81,1.34C132.21,197.75,132.96,198.46,132.94,198.17L132.94,198.17z"/>
<path class="st1" d="M131.87,191.78c-0.06-0.64-0.18-1.28-0.19-1.93c-0.01-0.59-0.19-1.15-0.21-1.74c-0.05-1.23,0.32-2.44,0.39-3.66
	c0.04-0.59-0.45-0.93-1.02-0.95c-0.45-0.01-1.42,0.21-1.45,0.82c-0.08,1.34-0.45,2.65-0.42,4c0.01,0.59,0.21,1.15,0.22,1.74
	c0.02,0.7,0.13,1.38,0.19,2.07c0.05,0.6,0.9,0.77,1.37,0.69C131.26,192.73,131.93,192.4,131.87,191.78L131.87,191.78z"/>
<path class="st1" d="M129.75,181.56c-0.42,1.57-0.35,3.18-0.39,4.79c-0.02,0.8-0.07,1.59-0.06,2.39c0.01,0.78,0.15,1.52,0.22,2.29
	c0.13,1.35,0.29,2.75,0.76,4.04c0.53,1.45,1.2,2.84,1.96,4.19c0.2,0.35,1.17,0.38,1.51,0.4c0.14,0.01,1.09,0.07,0.92-0.22
	c-0.77-1.36-1.44-2.77-1.97-4.24c-0.46-1.29-0.53-2.68-0.71-4.03c-0.2-1.51-0.18-2.96-0.14-4.48c0.04-1.61-0.04-3.21,0.39-4.79
	C132.34,181.59,129.88,181.07,129.75,181.56L129.75,181.56z"/>
<path class="st1" d="M132.12,184.63c0.01,0.01,0.11,0.19,0.12,0.18c0.02-0.01-0.01-0.08,0-0.1c0.05-0.09,0.08-0.21,0.11-0.31
	c0.09-0.27,0.13-0.56,0.18-0.85c0.09-0.56,0.14-1.11,0.35-1.64c0.19-0.47,0.45-0.91,0.65-1.37c0.2-0.47,0.42-0.93,0.77-1.3
	c0.11-0.11-0.07-0.39-0.13-0.46c-0.16-0.24-0.42-0.46-0.66-0.62c-0.24-0.17-0.98-0.69-1.28-0.38c-0.39,0.41-0.61,0.93-0.83,1.43
	c-0.23,0.54-0.55,1.04-0.73,1.6c-0.19,0.62-0.23,1.28-0.36,1.92c-0.05,0.26-0.18,0.49-0.21,0.75c-0.05,0.39,0.25,0.77,0.52,1.02
	c0.39,0.37,0.93,0.84,1.5,0.87C132.69,185.4,132.31,184.82,132.12,184.63L132.12,184.63z"/>
<path class="st1" d="M131.93,182.14c-0.04-0.03-0.14-0.15,0,0.01c0.07,0.09,0.08,0.11,0.04,0.04c0.02,0.06,0.05,0.12,0.07,0.18
	c0,0-0.03-0.11-0.03-0.12c-0.03-0.11,0.04-0.14,0.01,0.11c0.01-0.09,0-0.19,0.01-0.28c0-0.04,0.01-0.08,0.02-0.12
	c0.02-0.22-0.07,0.27-0.01,0.05c0.09-0.33,0.2-0.66,0.35-0.97c0.08-0.18-0.01,0.02-0.01,0.02c0,0,0.08-0.13,0.09-0.14
	c0.08-0.12,0.16-0.23,0.24-0.34c0.16-0.21,0.34-0.42,0.49-0.64c0.14-0.2,0.28-0.41,0.43-0.61c0.07-0.09,0.13-0.18,0.21-0.27
	c0.01-0.01,0.13-0.12,0.12-0.14c0.01,0.04-0.21,0.19,0,0.02c0.46-0.4,0.56-1.11,0.08-1.54c-0.47-0.42-1.28-0.52-1.78-0.09
	c-0.5,0.43-0.83,0.96-1.21,1.48c-0.39,0.54-0.8,1.02-1.08,1.63c-0.44,0.97-0.78,2.36,0.13,3.17c0.47,0.42,1.28,0.52,1.78,0.09
	C132.32,183.28,132.42,182.57,131.93,182.14L131.93,182.14z"/>
<path class="st1" d="M133.8,175.64c-0.48,0.47-0.88,1.01-1.34,1.51c-0.2,0.23-0.41,0.44-0.55,0.71c-0.17,0.31-0.3,0.65-0.46,0.97
	c0.03-0.07,0.07-0.13,0.1-0.2c-0.01,0.02-0.02,0.03-0.02,0.05c-0.08,0.1-0.12,0.2-0.11,0.32c-0.02,0.13-0.01,0.25,0.04,0.37
	c0.09,0.28,0.32,0.57,0.55,0.74c0.24,0.18,0.54,0.35,0.85,0.36c0.21,0.01,0.54-0.02,0.65-0.24c0.16-0.31,0.29-0.63,0.44-0.93
	c-0.03,0.07-0.07,0.13-0.1,0.2c0.22-0.44,0.59-0.76,0.9-1.14c0.33-0.4,0.66-0.8,1.03-1.16c0.17-0.16,0.13-0.5,0.07-0.69
	c-0.09-0.28-0.32-0.57-0.55-0.74c-0.24-0.18-0.54-0.35-0.85-0.36C134.19,175.4,133.99,175.46,133.8,175.64L133.8,175.64z"/>
<path class="st1" d="M134.84,175.53c-0.44,0.16-0.75,0.49-0.98,0.89c-0.21,0.36-0.42,0.7-0.68,1.03c-0.32,0.39-0.6,0.79-0.85,1.22
	c-0.28,0.48-0.54,0.97-0.84,1.44c-0.26,0.42,0.66,0.57,0.89,0.58c0.32,0.02,0.66,0.02,0.97-0.06c0.19-0.05,0.46-0.12,0.58-0.3
	c0.53-0.86,0.96-1.76,1.59-2.54c0.25-0.31,0.49-0.62,0.68-0.97c0.09-0.16,0.18-0.32,0.28-0.46c0.03-0.04,0.19-0.19,0.08-0.1
	c0.03-0.02,0.06-0.04,0.08-0.06c0.13-0.11-0.17,0.07-0.01,0.01c0.13-0.05,0.37-0.18,0.36-0.35c0-0.17-0.25-0.29-0.38-0.34
	C136.07,175.3,135.39,175.32,134.84,175.53L134.84,175.53z"/>
<path class="st1" d="M131.43,180.31c-0.53,1.73-1.05,3.48-1.19,5.29c-0.04,0.51,0.86,0.25,1.09,0.15c0.3-0.13,0.59-0.29,0.82-0.52
	c0.15-0.15,0.34-0.34,0.35-0.56c0.12-1.69,0.59-3.32,1.09-4.94c0.05-0.16,0.09-0.32-0.09-0.42c-0.17-0.1-0.49-0.05-0.66,0
	c-0.31,0.09-0.62,0.23-0.88,0.42C131.78,179.88,131.51,180.07,131.43,180.31L131.43,180.31z"/>
<path class="st1" d="M130.79,182.3c-0.26,1.39-0.23,2.84-0.76,4.17c-0.16,0.41,0.89,0.12,0.99,0.08c0.31-0.1,0.61-0.23,0.88-0.42
	c0.17-0.11,0.37-0.24,0.45-0.44c0.52-1.33,0.49-2.78,0.76-4.17c0.08-0.42-0.83-0.14-0.99-0.08c-0.31,0.1-0.61,0.23-0.88,0.42
	C131.09,181.96,130.82,182.11,130.79,182.3L130.79,182.3z"/>
<path class="st1" d="M130.37,184.52c-0.22,1.41-0.36,2.83-0.4,4.25c-0.01,0.26,0.22,0.54,0.43,0.67c0.24,0.15,0.6,0.19,0.88,0.13
	c0.63-0.14,1.13-0.6,1.15-1.26c0.01-0.49,0.04-0.98,0.08-1.46c-0.01,0.09-0.01,0.18-0.02,0.27c0.07-0.84,0.17-1.68,0.3-2.51
	c0.04-0.28,0-0.55-0.19-0.77c-0.18-0.2-0.5-0.33-0.77-0.33C131.23,183.51,130.47,183.88,130.37,184.52L130.37,184.52z"/>
<path class="st1" d="M293.83,162.03c0.17-1.05,0.83-1.87,1.49-2.67c0.7-0.85,1.35-1.74,2.03-2.61c1.49-1.9,3.3-3.29,5.33-4.57
	c1.93-1.22,4.18-2.88,6.58-2.78c0.3,0.01,0.6,0.06,0.9,0.13c0.1,0.03,0.2,0.06,0.3,0.08c0.62,0.13-0.51,0.61-1-0.76
	c0.18,0.5,0.44,0.94,0.55,1.48c0.25,1.22-0.03,2.56-0.23,3.76c-0.09,0.56-0.22,1.12-0.31,1.68c-0.1,0.65-0.02,1.31-0.07,1.97
	c-0.09,1.22-0.49,2.42-0.73,3.61c-0.42,2.06-0.66,4.55,0.91,6.19c1.53,1.6,3.53,2.55,5.75,2.28c2.16-0.26,4.16-1.29,6.02-2.36
	c3.96-2.28,7.88-4.64,11.52-7.4c3.7-2.82,7.14-5.99,10.22-9.49c3.03-3.44,5.69-7.21,7.77-11.29c2.16-4.24,3.37-8.89,3.51-13.65
	c0.15-5.01-1.13-9.78-2.32-14.6c-1.24-5.03-2.04-10.21-2.37-15.38c-0.04-0.58-0.08-1.16-0.2-1.73c-0.11-0.54-0.31-1.05-0.41-1.6
	c-0.07-0.38-0.89-0.82-1.19-1.01c-0.1-0.07-0.91-0.54-0.87-0.3c0.09,0.54,0.29,1.06,0.41,1.6c0.14,0.68,0.18,1.37,0.22,2.06
	c0.07,1.24,0.22,2.48,0.36,3.72c0.3,2.53,0.66,5.05,1.15,7.55c0.99,5.04,2.75,9.95,3.1,15.1c0.32,4.7-0.4,9.48-2.12,13.87
	c-1.67,4.23-4.21,8.16-7.02,11.72c-5.82,7.35-13.18,13.17-21.26,17.87c-1.86,1.08-3.67,2.27-5.66,3.08
	c-1.01,0.41-2.08,0.72-3.17,0.8c-0.51,0.03-1.05,0.03-1.55-0.07c-0.19-0.04-0.38-0.14-0.57-0.17c0.46,0.07,0.59,0.57,0.21,0.02
	c-0.66-0.96-0.69-2.25-0.62-3.37c0.07-1.23,0.38-2.41,0.64-3.61c0.12-0.58,0.27-1.17,0.34-1.76c0.08-0.65-0.01-1.31,0.06-1.97
	c0.12-1.18,0.43-2.34,0.57-3.52c0.14-1.17,0.13-2.26-0.35-3.36c-0.4-0.92-1.26-1.54-2.11-2.02c-1.91-1.07-4.07-0.62-5.92,0.34
	c-2.16,1.13-4.36,2.48-6.23,4.05c-1.7,1.42-2.87,3.34-4.27,5.02c-0.64,0.78-1.27,1.58-1.43,2.6c-0.05,0.3,0.72,0.75,0.92,0.89
	C292.75,161.52,293.81,162.16,293.83,162.03L293.83,162.03z"/>
<path class="st1" d="M370.58,214.55c1.09-0.97,2.23-2.52,2.51-3.99c0.09-0.46,0.04-0.89,0.24-1.33c0.21-0.47,0.45-0.9,0.6-1.39
	c0.27-0.92,0.35-1.87,0.47-2.82c0.27-2.03,0.66-4.04,0.83-6.09c0.17-2,0.19-4.03-0.03-6.03c-0.23-2.06-0.74-4.07-1.53-5.98
	c-0.68-1.67-1.77-3.13-3.01-4.43c-2.61-2.74-6.02-4.43-9.24-6.34c-1.22-0.72-2.91-1.73-2.82-3.38c0.05-0.88,0.53-1.69,0.91-2.46
	c0.43-0.9,0.9-1.77,1.45-2.61c1.08-1.65,2.35-3.16,3.65-4.63c1.41-1.6,2.8-3.22,4.18-4.84c2.69-3.15,5.42-6.26,8.46-9.06
	c2.98-2.75,6.29-5.09,9.68-7.32c3.46-2.27,7.02-4.35,10.89-5.86c1.92-0.75,3.87-1.42,5.83-2.07c2.02-0.68,4.03-1.24,6.15-1.48
	c1.03-0.12,2.07-0.21,3.09-0.39c0.49-0.09,0.95-0.47,0.67-1c-0.28-0.52-1.09-0.74-1.63-0.64c-2.12,0.37-4.27,0.44-6.36,0.98
	c-2.03,0.52-4.01,1.22-5.99,1.91c-3.98,1.38-7.73,3.07-11.34,5.24c-3.54,2.13-7.05,4.44-10.26,7.04c-3.16,2.56-6.01,5.49-8.71,8.52
	c-1.42,1.6-2.81,3.24-4.2,4.87c-1.37,1.6-2.79,3.15-4.13,4.77c-1.26,1.51-2.44,3.1-3.34,4.85c-0.83,1.61-1.97,3.45-1.22,5.3
	c0.63,1.56,2.11,2.55,3.5,3.37c1.58,0.94,3.18,1.86,4.76,2.8c3.21,1.91,5.9,4.62,7.1,8.22c1.3,3.91,1.32,8.02,0.81,12.07
	c-0.13,1.05-0.29,2.1-0.47,3.14c-0.17,0.98-0.24,1.98-0.43,2.96c-0.09,0.46-0.19,0.93-0.38,1.35c-0.2,0.46-0.49,0.89-0.58,1.39
	c-0.07,0.39-0.03,0.77-0.16,1.15c-0.12,0.37-0.31,0.73-0.5,1.07c-0.38,0.67-0.83,1.36-1.41,1.87
	C367.6,214.2,369.81,215.23,370.58,214.55L370.58,214.55z"/>
<path class="st1" d="M293.47,158.13c-1.04,1.16-1.92,2.58-2.21,4.13c-0.11,0.61,0.42,1.12,1.01,1.12c0.63-0.01,1.29-0.41,1.41-1.06
	c0.04-0.22,0.1-0.43,0.16-0.64c-0.03,0.09-0.06,0.18-0.09,0.28c0.19-0.58,0.47-1.12,0.79-1.63c-0.05,0.09-0.11,0.17-0.16,0.26
	c0.3-0.47,0.64-0.91,1.01-1.32c0.39-0.43,0.36-1.21-0.19-1.5C294.6,157.44,293.9,157.65,293.47,158.13L293.47,158.13z"/>
<path class="st1" d="M293.49,157.26c-0.58,0.56-1.13,1.17-1.57,1.85c-0.46,0.72-0.86,1.64-0.71,2.51c0.05,0.3,0.17,0.55,0.42,0.75
	c0.24,0.2,0.61,0.34,0.92,0.33c0.3-0.01,0.63-0.08,0.85-0.3c0.2-0.19,0.37-0.48,0.32-0.77c-0.03-0.14-0.03-0.29-0.02-0.43
	c-0.01,0.1-0.01,0.19-0.02,0.29c0.02-0.27,0.1-0.52,0.19-0.77c-0.04,0.09-0.07,0.18-0.11,0.26c0.24-0.57,0.6-1.08,0.99-1.55
	c-0.06,0.07-0.12,0.14-0.18,0.22c0.25-0.3,0.52-0.58,0.8-0.85c0.45-0.43,0.39-1.14-0.1-1.52
	C294.78,156.92,293.97,156.8,293.49,157.26L293.49,157.26z"/>
<path class="st1" d="M291.11,163.76c-0.03,0.1-0.06,0.19-0.1,0.29c0,0.09,0.04,0.16,0.1,0.21c0.07,0.08,0.15,0.14,0.26,0.18
	c0.13,0.06,0.26,0.1,0.4,0.12c0.16,0.04,0.32,0.06,0.48,0.06c0.11,0,0.22-0.01,0.34-0.01c0.19-0.01,0.38-0.05,0.56-0.12
	c0.07-0.03,0.13-0.07,0.2-0.1c0.1-0.06,0.16-0.14,0.18-0.26c0.03-0.1,0.06-0.19,0.1-0.29c0-0.09-0.04-0.16-0.1-0.21
	c-0.07-0.08-0.15-0.14-0.26-0.18c-0.13-0.06-0.26-0.1-0.4-0.12c-0.16-0.04-0.32-0.06-0.48-0.06c-0.11,0-0.22,0.01-0.34,0.01
	c-0.19,0.01-0.38,0.05-0.56,0.12c-0.07,0.03-0.13,0.07-0.2,0.1C291.18,163.56,291.12,163.65,291.11,163.76L291.11,163.76z"/>
<path class="st1" d="M292.15,165.23c0.41-0.59,0.84-1.16,1.22-1.76c0.18-0.27,0.37-0.53,0.56-0.79c0.09-0.12,0.15-0.25,0.22-0.37
	c0.04-0.07,0.07-0.13,0.12-0.2c0.02-0.03,0.04-0.05,0.06-0.08c0.05-0.07-0.09,0.1,0.01,0c0.1-0.09,0.18-0.22,0.05-0.32
	c-0.13-0.11-0.47-0.1-0.62-0.09c-0.32,0.02-0.65,0.09-0.95,0.2c-0.24,0.09-0.51,0.18-0.69,0.36c-0.25,0.24-0.37,0.53-0.55,0.82
	c-0.18,0.28-0.4,0.54-0.58,0.82c-0.4,0.62-0.84,1.21-1.26,1.81c-0.1,0.14,0.1,0.24,0.2,0.26c0.23,0.07,0.55,0.03,0.78-0.01
	c0.32-0.05,0.64-0.13,0.93-0.27C291.83,165.51,292.02,165.41,292.15,165.23L292.15,165.23z"/>
<path class="st1" d="M292.67,165.44c0.35-0.93,0.84-1.8,1.33-2.66c0.11-0.18,0.08-0.44-0.06-0.59c-0.16-0.18-0.47-0.25-0.69-0.25
	c-0.6,0-1.25,0.27-1.55,0.8c-0.49,0.86-0.98,1.73-1.33,2.66c-0.08,0.21-0.1,0.41,0.06,0.59c0.16,0.18,0.47,0.25,0.69,0.25
	c0.32,0,0.66-0.07,0.95-0.23C292.29,165.88,292.57,165.7,292.67,165.44L292.67,165.44z"/>
<path class="st1" d="M293.75,164.58c0.34-1.27,0.78-2.52,1.33-3.71c0.07-0.15-0.1-0.22-0.21-0.24c-0.23-0.05-0.55,0.01-0.77,0.06
	c-0.31,0.07-0.63,0.17-0.92,0.33c-0.17,0.09-0.4,0.21-0.48,0.39c-0.56,1.19-0.99,2.44-1.33,3.71c-0.11,0.41,0.81,0.23,0.98,0.18
	c0.31-0.07,0.63-0.17,0.92-0.33C293.42,164.89,293.7,164.76,293.75,164.58L293.75,164.58z"/>
<path class="st1" d="M294.09,163.73c0.07-0.23,0.12-0.38,0.24-0.68c0.11-0.27,0.23-0.54,0.36-0.8c0.25-0.49,0.53-0.97,0.76-1.47
	c0.53-1.12,1.04-2.25,1.59-3.36c0.64-1.28-1.73-2.11-2.31-0.94c-0.57,1.15-1.1,2.32-1.65,3.47c-0.25,0.53-0.56,1.03-0.81,1.56
	c-0.28,0.58-0.48,1.19-0.67,1.79c-0.08,0.25,0.09,0.6,0.25,0.78c0.2,0.23,0.53,0.41,0.83,0.44
	C293.33,164.62,293.88,164.36,294.09,163.73L294.09,163.73z"/>
<path class="st1" d="M291.72,163.54c0.1-0.18,0.19-0.36,0.28-0.55c0.04-0.09,0.08-0.2,0.15-0.27c-0.05,0.06-0.14,0.21-0.03,0.06
	c0.03-0.04,0.06-0.08,0.09-0.12c0.06-0.08,0.34-0.35,0.06-0.08c0.08-0.08,0.16-0.17,0.24-0.25c0.16-0.17,0.32-0.33,0.49-0.49
	c0.32-0.32,0.69-0.57,1.02-0.88c0.08-0.07,0.15-0.15,0.22-0.23c0.04-0.04,0.07-0.07,0.11-0.11c0.03-0.03,0.21-0.17,0.01-0.02
	c-0.2,0.15,0.08-0.02,0.13-0.06c0.17-0.09,0.33-0.22,0.48-0.35c0.2-0.18,0.4-0.45,0.44-0.72c0.03-0.21-0.03-0.48-0.22-0.6
	c-0.51-0.32-1.22-0.02-1.62,0.34c-0.07,0.06-0.06,0.05,0.05-0.03c0.11-0.08,0.12-0.09,0.04-0.04c-0.04,0.02-0.08,0.04-0.12,0.07
	c-0.17,0.09-0.31,0.2-0.46,0.32c-0.17,0.14-0.32,0.31-0.48,0.46c-0.36,0.33-0.75,0.61-1.09,0.96c-0.39,0.39-0.79,0.78-1.14,1.21
	c-0.33,0.4-0.51,0.89-0.76,1.33c-0.11,0.19-0.13,0.5-0.01,0.69c0.12,0.2,0.39,0.3,0.62,0.29
	C290.85,164.47,291.4,164.08,291.72,163.54L291.72,163.54z"/>
<path class="st1" d="M292.55,162.99c0.39-0.59,0.86-1.11,1.36-1.6c0.51-0.51,1.09-0.93,1.59-1.44c0.06-0.07-0.23-0.33-0.22-0.33
	c-0.21-0.2-0.46-0.39-0.7-0.55c-0.25-0.17-0.5-0.33-0.77-0.45c-0.08-0.04-0.31-0.17-0.39-0.09c-0.5,0.51-1.08,0.94-1.59,1.44
	c-0.5,0.49-0.97,1.02-1.36,1.6c-0.05,0.08,0.21,0.32,0.22,0.33c0.21,0.2,0.46,0.39,0.7,0.55c0.25,0.17,0.5,0.33,0.77,0.45
	C292.23,162.93,292.5,163.08,292.55,162.99L292.55,162.99z"/>
<path class="st1" d="M293.21,161.65c0.27-0.36,0.58-0.67,0.9-0.98c0.34-0.34,0.61-0.73,0.96-1.05c-0.04,0.04-0.08,0.07-0.12,0.11
	c0.28-0.25,0.57-0.47,0.83-0.73c0.12-0.12-0.06-0.27-0.15-0.31c-0.21-0.11-0.54-0.14-0.77-0.14c-0.32,0-0.66,0.02-0.97,0.11
	c-0.21,0.06-0.4,0.13-0.56,0.29c-0.06,0.06-0.11,0.11-0.17,0.16c0.04-0.04,0.08-0.07,0.12-0.11c-0.25,0.22-0.52,0.43-0.76,0.67
	c-0.22,0.21-0.39,0.46-0.6,0.69c-0.38,0.43-0.81,0.79-1.16,1.26c-0.1,0.14,0.04,0.25,0.15,0.31c0.21,0.11,0.54,0.14,0.77,0.14
	c0.32,0,0.66-0.02,0.97-0.11C292.84,161.88,293.08,161.81,293.21,161.65L293.21,161.65z"/>
<path class="st1" d="M292.34,163.69c0.6-0.88,1.25-1.72,2-2.47c0.1-0.1-0.01-0.34-0.04-0.42c-0.11-0.27-0.28-0.54-0.45-0.78
	c-0.18-0.24-0.36-0.49-0.59-0.67c-0.07-0.05-0.3-0.27-0.39-0.18c-0.75,0.76-1.4,1.6-2,2.47c-0.08,0.12,0,0.31,0.04,0.42
	c0.11,0.27,0.28,0.54,0.45,0.78c0.18,0.24,0.36,0.49,0.59,0.67C292.01,163.56,292.27,163.79,292.34,163.69L292.34,163.69z"/>
<path class="st1" d="M292.7,163.21c0.1-0.16,0.19-0.32,0.29-0.48c0.06-0.1,0.09-0.21,0.07-0.33c0.01-0.13-0.03-0.25-0.09-0.36
	c-0.07-0.14-0.15-0.25-0.27-0.35c-0.11-0.12-0.24-0.23-0.38-0.31c-0.1-0.05-0.2-0.1-0.3-0.14c-0.19-0.07-0.38-0.11-0.59-0.1
	c-0.08,0.01-0.17,0.03-0.25,0.04c-0.15,0.04-0.27,0.13-0.36,0.27c-0.1,0.16-0.19,0.32-0.29,0.48c-0.06,0.1-0.09,0.21-0.07,0.33
	c-0.01,0.13,0.03,0.25,0.09,0.36c0.07,0.14,0.15,0.25,0.27,0.35c0.11,0.12,0.24,0.23,0.38,0.31c0.1,0.05,0.2,0.1,0.3,0.14
	c0.19,0.07,0.38,0.11,0.59,0.1c0.08-0.01,0.17-0.03,0.25-0.04C292.49,163.43,292.61,163.34,292.7,163.21L292.7,163.21z"/>
<path class="st1" d="M290.81,168.01c0.21-0.38,0.43-0.76,0.68-1.12c-0.05,0.08-0.11,0.16-0.16,0.24c0.14-0.21,0.3-0.41,0.46-0.6
	c0.2-0.22,0.29-0.53,0.28-0.82c0-0.17-0.04-0.33-0.12-0.47c-0.05-0.16-0.14-0.31-0.26-0.43c-0.21-0.21-0.49-0.4-0.8-0.41
	c-0.29-0.01-0.59,0.07-0.79,0.3c-0.52,0.59-0.92,1.27-1.31,1.95c-0.07,0.14-0.11,0.28-0.11,0.43c-0.02,0.16-0.01,0.31,0.04,0.47
	c0.04,0.17,0.12,0.32,0.23,0.45c0.09,0.14,0.2,0.26,0.34,0.35c0.25,0.15,0.56,0.27,0.85,0.19c0.09-0.03,0.18-0.07,0.27-0.1
	C290.59,168.33,290.72,168.19,290.81,168.01L290.81,168.01z"/>
<path class="st1" d="M291.75,167.05c0.16-0.25,0.32-0.51,0.48-0.76c0.05-0.07,0.06-0.15,0.04-0.23c-0.01-0.11-0.04-0.2-0.1-0.29
	c-0.07-0.12-0.16-0.23-0.26-0.33c-0.11-0.12-0.23-0.23-0.36-0.33c-0.09-0.06-0.19-0.13-0.28-0.19c-0.16-0.1-0.34-0.18-0.52-0.23
	c-0.07-0.01-0.15-0.02-0.22-0.04c-0.12-0.01-0.22,0.02-0.3,0.1c-0.16,0.25-0.32,0.51-0.48,0.76c-0.05,0.07-0.06,0.15-0.04,0.23
	c0.01,0.11,0.04,0.2,0.1,0.29c0.07,0.12,0.16,0.23,0.26,0.33c0.11,0.12,0.23,0.23,0.36,0.33c0.09,0.06,0.19,0.13,0.28,0.19
	c0.16,0.1,0.34,0.18,0.52,0.23c0.07,0.01,0.15,0.02,0.22,0.04C291.57,167.17,291.67,167.13,291.75,167.05L291.75,167.05z"/>
<path class="st1" d="M292.19,166.2c0.57-0.91,1.19-1.79,1.81-2.66c0.14-0.2,0.08-0.57,0.02-0.77c-0.1-0.29-0.32-0.61-0.56-0.8
	c-0.22-0.17-0.5-0.34-0.79-0.32c-0.08,0.01-0.16,0.02-0.24,0.04c-0.15,0.05-0.27,0.15-0.35,0.3c-0.62,0.88-1.24,1.76-1.81,2.66
	c-0.13,0.21-0.09,0.56-0.02,0.77c0.1,0.29,0.32,0.61,0.56,0.8C291.22,166.53,291.86,166.73,292.19,166.2L292.19,166.2z"/>
<path class="st1" d="M294.02,163.64c0.38-0.6,0.76-1.2,1.14-1.81c0.1-0.12,0.17-0.26,0.19-0.41c0.05-0.15,0.06-0.3,0.02-0.45
	c-0.05-0.3-0.24-0.64-0.49-0.82c-0.26-0.19-0.58-0.33-0.91-0.29c-0.29,0.03-0.63,0.14-0.79,0.4c-0.38,0.6-0.76,1.21-1.14,1.81
	c-0.1,0.12-0.17,0.26-0.19,0.41c-0.05,0.15-0.06,0.3-0.02,0.45c0.05,0.3,0.24,0.63,0.49,0.82c0.26,0.19,0.58,0.33,0.91,0.29
	C293.52,164.01,293.86,163.9,294.02,163.64L294.02,163.64z"/>
<path class="st1" d="M296.03,160.96c0.54-0.85,1.11-1.67,1.71-2.47c0.16-0.21,0.18-0.58,0.1-0.82c-0.09-0.26-0.34-0.49-0.6-0.57
	c-0.3-0.1-0.64-0.11-0.94,0.01c-0.1,0.05-0.2,0.1-0.3,0.15c-0.18,0.11-0.32,0.26-0.43,0.44c-0.6,0.8-1.17,1.63-1.71,2.47
	c-0.15,0.23-0.19,0.56-0.1,0.82c0.09,0.26,0.34,0.49,0.6,0.57C294.97,161.76,295.67,161.52,296.03,160.96L296.03,160.96z"/>
<path class="st1" d="M369.56,217.91c0.43-0.75,0.85-1.51,1.25-2.28c0.4-0.74,0.84-1.45,1.13-2.24c0.06-0.17-0.13-0.5-0.21-0.63
	c-0.17-0.26-0.43-0.52-0.68-0.7c-0.26-0.18-0.91-0.59-1.09-0.12c-0.06,0.15-0.12,0.3-0.18,0.44c0.02-0.04,0.04-0.09,0.06-0.13
	c-0.3,0.66-0.69,1.28-1.02,1.92c-0.36,0.68-0.74,1.35-1.12,2.02c-0.24,0.42,0.28,0.98,0.57,1.24c0.22,0.2,0.48,0.4,0.76,0.49
	C369.17,217.98,369.47,218.07,369.56,217.91L369.56,217.91z"/>
<path class="st1" d="M368.6,218.25c0.28-0.9,0.64-1.78,1.09-2.6c0.22-0.39,0.37-0.82,0.58-1.21c0.09-0.16,0.21-0.28,0.32-0.41
	c0.16-0.19,0.24-0.35,0.27-0.6c0.04-0.23-0.09-0.56-0.17-0.77c-0.12-0.29-0.29-0.6-0.5-0.84c-0.21-0.23-0.69-0.64-0.77-0.1
	c0.01-0.07,0.02-0.04-0.01,0.01c-0.02,0.04-0.04,0.07-0.06,0.11c-0.04,0.06-0.08,0.11-0.13,0.16c-0.14,0.16-0.26,0.3-0.36,0.48
	c-0.21,0.4-0.37,0.81-0.59,1.21c-0.44,0.8-0.78,1.66-1.05,2.53c-0.15,0.5,0.17,1.12,0.45,1.52
	C367.76,217.86,368.46,218.71,368.6,218.25L368.6,218.25z"/>
<path class="st1" d="M368.81,216.07c0.17-0.33,0.36-0.65,0.57-0.96c-0.05,0.07-0.1,0.14-0.14,0.21c0.33-0.49,0.71-0.95,1.13-1.37
	c0.15-0.15,0.26-0.44,0.19-0.65c-0.07-0.22-0.3-0.39-0.52-0.45c-0.61-0.16-1.27,0.06-1.71,0.5c-0.74,0.74-1.35,1.61-1.84,2.54
	c-0.11,0.2-0.09,0.46,0.05,0.64c0.15,0.19,0.46,0.29,0.69,0.3C367.82,216.86,368.52,216.62,368.81,216.07L368.81,216.07z"/>
<path class="st1" d="M370.16,213.99c0.27-0.58,0.55-1.16,0.9-1.7c0.05-0.07-0.44-0.12-0.38-0.11c-0.29-0.02-0.6-0.01-0.89,0.02
	c-0.29,0.03-0.6,0.06-0.88,0.15c-0.06,0.02-0.13,0.04-0.19,0.06c-0.08,0.01-0.13,0.05-0.16,0.12c-0.35,0.54-0.63,1.12-0.9,1.7
	c-0.04,0.08,0.43,0.12,0.38,0.11c0.29,0.02,0.6,0.01,0.89-0.02c0.29-0.03,0.6-0.06,0.88-0.15
	C369.92,214.13,370.1,214.11,370.16,213.99L370.16,213.99z"/>
<path class="st1" d="M370.07,213.31c0.19-0.28,0.4-0.54,0.62-0.8c0.1-0.12,0.21-0.24,0.32-0.36c0.11-0.11,0.22-0.23,0.31-0.36
	c0.04-0.03,0.05-0.05,0-0.06c-0.05-0.02-0.1-0.02-0.16,0c-0.24,0.03-0.5,0.11-0.74,0.18c-0.31,0.09-0.62,0.2-0.92,0.32
	c-0.08,0.03-0.16,0.07-0.24,0.1c-0.1,0.04-0.2,0.1-0.29,0.16c-0.09,0.13-0.2,0.24-0.3,0.35c-0.12,0.12-0.22,0.24-0.33,0.37
	c-0.22,0.26-0.44,0.52-0.62,0.8c-0.04,0.03-0.05,0.05,0,0.06c0.05,0.02,0.1,0.02,0.16,0c0.24-0.03,0.5-0.11,0.74-0.18
	c0.31-0.09,0.62-0.2,0.92-0.32c0.08-0.03,0.16-0.07,0.24-0.1C369.88,213.42,369.98,213.37,370.07,213.31L370.07,213.31z"/>
<path class="st1" d="M371.24,212.96c0.19-0.25,0.4-0.49,0.63-0.72c0.07-0.09,0.09-0.18,0.07-0.28c0-0.11-0.03-0.2-0.11-0.29
	c-0.08-0.1-0.18-0.19-0.29-0.25c-0.12-0.09-0.26-0.15-0.4-0.19c-0.11-0.03-0.22-0.05-0.33-0.08c-0.21-0.03-0.43-0.04-0.64,0
	c-0.09,0.02-0.18,0.05-0.27,0.07c-0.15,0.05-0.27,0.14-0.37,0.26c-0.22,0.22-0.43,0.46-0.63,0.72c-0.07,0.09-0.09,0.18-0.07,0.28
	c0,0.11,0.03,0.2,0.11,0.29c0.08,0.1,0.18,0.19,0.29,0.25c0.12,0.09,0.26,0.15,0.4,0.19c0.11,0.03,0.22,0.05,0.33,0.08
	c0.21,0.03,0.43,0.04,0.64,0c0.09-0.02,0.18-0.05,0.27-0.07C371.02,213.17,371.14,213.08,371.24,212.96L371.24,212.96z"/>
<path class="st1" d="M371.86,211.62c0.09-0.15,0.18-0.3,0.27-0.45c0.06-0.06,0.09-0.12,0.08-0.19c0.01-0.06-0.01-0.11-0.08-0.14
	c-0.08-0.03-0.17-0.05-0.26-0.04c-0.12,0-0.25,0.01-0.37,0.05c-0.1,0.03-0.2,0.05-0.29,0.08c-0.21,0.07-0.42,0.16-0.62,0.26
	c-0.09,0.05-0.17,0.1-0.26,0.16c-0.14,0.09-0.26,0.19-0.36,0.31c-0.09,0.15-0.18,0.3-0.27,0.45c-0.06,0.06-0.09,0.12-0.08,0.19
	c-0.01,0.06,0.01,0.11,0.08,0.14c0.08,0.03,0.17,0.05,0.26,0.04c0.12,0,0.25-0.01,0.37-0.05c0.1-0.03,0.2-0.05,0.29-0.08
	c0.21-0.07,0.42-0.16,0.62-0.26c0.09-0.05,0.17-0.1,0.26-0.16C371.64,211.85,371.76,211.74,371.86,211.62L371.86,211.62z"/>
<path class="st1" d="M372.54,212.09c0.06-0.24,0.12-0.48,0.18-0.72c-0.03-0.05-0.07-0.08-0.13-0.08c-0.09-0.03-0.18-0.03-0.28-0.02
	c-0.14,0-0.27,0.02-0.41,0.05c-0.16,0.02-0.32,0.06-0.48,0.1c-0.11,0.03-0.21,0.06-0.32,0.09c-0.18,0.06-0.35,0.13-0.52,0.21
	c-0.06,0.03-0.12,0.07-0.18,0.1c-0.08,0.04-0.12,0.1-0.13,0.18c-0.06,0.24-0.12,0.48-0.18,0.72c0.03,0.05,0.07,0.08,0.13,0.08
	c0.09,0.03,0.18,0.03,0.28,0.02c0.14,0,0.27-0.02,0.41-0.05c0.16-0.02,0.32-0.06,0.48-0.1c0.11-0.03,0.21-0.06,0.32-0.09
	c0.18-0.06,0.35-0.13,0.52-0.21c0.06-0.03,0.12-0.07,0.18-0.1C372.49,212.23,372.53,212.17,372.54,212.09L372.54,212.09z"/>
<path class="st1" d="M372.16,211.91c0.33,0-0.2-0.8-0.27-0.9c-0.16-0.25-0.68-1.15-1.06-1.15c-0.33,0,0.2,0.8,0.27,0.9
	C371.26,211,371.78,211.91,372.16,211.91L372.16,211.91z"/>
<path class="st1" d="M359.44,99.28c-0.73-0.47-1.52-0.86-2.17-1.42c-2.55-2.2-5.05-4.44-7.56-6.68c-0.97-0.87-1.93-1.74-2.81-2.69
	c-0.68-0.73-1.07-0.34-1.24,0.28c-0.5,1.92-1.04,3.85-1.3,5.82c-0.47,3.51-0.74,7.04-1.1,10.57c-0.02,0.18-0.14,0.35-0.39,0.48
	c0.12-1.83,0.25-3.67,0.37-5.5c0.02-0.31,0.1-0.63,0.05-0.93c-0.05-0.32-0.23-0.62-0.35-0.92c-0.26,0.17-0.53,0.33-0.78,0.52
	c-0.15,0.12-0.26,0.28-0.54,0.6c0.86-2.46,1.86-4.63,2.35-6.91c0.48-2.2,1.77-4.43,0.4-6.9c1.96,0.45,1.43-1.18,1.84-2.32
	c1.54,1.41,2.99,2.68,4.38,4.01c2.65,2.54,5.28,5.11,7.9,7.69c0.57,0.56,1.26,1.19,0.04,1.85c0.46,0.71,0.89,1.38,1.32,2.05
	C359.72,99.01,359.58,99.14,359.44,99.28z"/>
<path class="st1" d="M405.34,143.67c0.47-0.73,0.86-1.52,1.42-2.17c2.2-2.55,4.44-5.05,6.68-7.56c0.87-0.97,1.74-1.93,2.69-2.81
	c0.73-0.68,0.34-1.07-0.28-1.24c-1.92-0.5-3.85-1.04-5.82-1.3c-3.51-0.47-7.04-0.74-10.57-1.1c-0.18-0.02-0.35-0.14-0.48-0.39
	c1.83,0.12,3.67,0.25,5.5,0.37c0.31,0.02,0.63,0.1,0.93,0.05c0.32-0.05,0.62-0.23,0.92-0.35c-0.17-0.26-0.33-0.53-0.52-0.78
	c-0.12-0.15-0.28-0.26-0.6-0.54c2.46,0.86,4.63,1.86,6.91,2.35c2.2,0.48,4.43,1.77,6.9,0.4c-0.45,1.96,1.18,1.43,2.32,1.84
	c-1.41,1.54-2.68,2.99-4.01,4.38c-2.54,2.65-5.11,5.28-7.69,7.9c-0.56,0.57-1.19,1.26-1.85,0.04c-0.71,0.46-1.38,0.89-2.05,1.32
	C405.61,143.94,405.48,143.81,405.34,143.67z"/>
<text transform="matrix(1 0 0 1 376.7006 236.6935)" class="st0 st3 st4"></text>
</svg>
